<svg width="367" height="70" viewBox="0 0 367 70" fill="none" xmlns="http://www.w3.org/2000/svg">
<g clip-path="url(#clip0_808_30)">
<path d="M204.287 50.8804C205.546 50.9809 206.677 51.3104 207.831 51.4947C209.079 51.6958 210.229 51.3244 211.221 50.5285C212.203 49.7383 212.893 48.733 213.362 47.577C210.601 45.8987 208.004 46.3315 205.859 48.6074C205.29 49.2133 204.399 49.635 203.578 49.8528C202.718 50.0817 201.766 49.9617 200.78 49.9952C201.383 50.3777 201.947 50.7296 202.505 51.0926C203.539 51.7628 204.159 52.5698 204.22 53.9464C204.34 56.6607 206.655 58.6824 209.436 58.7382C210.461 54.3737 208.453 51.9806 204.287 50.8804Z" fill="#D8C631"/>
<path d="M245.891 57.853C248.047 56.75 248.826 55.3092 248.502 53.321C245.561 53.0669 243.464 55.2896 244.109 57.9983C244.369 58.015 244.637 58.029 245.084 58.0569C244.665 58.2272 244.414 58.3333 244.162 58.4339C244.701 61.1034 247.488 62.5415 250.127 60.8521C249.384 59.0482 248.203 57.8279 245.891 57.853Z" fill="#D8C631"/>
<path d="M230.463 59.0287C232.803 58.3306 233.699 57.1968 233.878 54.9434C231.046 54.195 228.86 55.8425 228.698 59.0287C228.913 59.0231 229.173 59.0175 229.43 59.0119C229.418 59.051 229.41 59.0901 229.399 59.1292C229.15 59.2241 228.902 59.3191 228.662 59.414C229.312 62.441 231.462 63.7031 234.277 62.7063C233.822 60.7516 232.873 59.2828 230.463 59.0287Z" fill="#D8C631"/>
<path d="M240.882 58.4171C243.211 57.3393 244.037 56.2111 244.006 54.2565C241.041 53.6868 239.122 55.1472 238.852 58.3417C239.064 58.3166 239.307 58.2887 239.552 58.2608C239.541 58.3306 239.53 58.4004 239.519 58.4702C239.284 58.5763 239.05 58.6824 238.832 58.7829C239.485 61.7876 241.527 62.9911 244.473 62.0696C243.951 60.1652 243.09 58.688 240.882 58.4171Z" fill="#D8C631"/>
<path d="M236.064 58.8582C238.103 58.2523 239.141 56.6634 239.08 54.7171C236.064 54.2173 234.207 55.6442 233.95 58.8387C234.154 58.8108 234.394 58.7773 234.635 58.7466C234.623 58.8219 234.615 58.8945 234.604 58.9699C234.383 59.0537 234.16 59.1375 233.945 59.2185C234.45 62.198 236.933 63.6612 239.549 62.4884C239.058 60.651 238.209 59.171 236.064 58.8582Z" fill="#D8C631"/>
<path d="M211.282 52.5755C214.644 54.3877 218.104 53.7929 219.653 49.5513C216.316 47.4682 212.642 48.7778 211.282 52.5755Z" fill="#D8C631"/>
<path d="M210.693 53.2317C209.484 57.0042 211.586 60.2211 215.607 60.6762C216.626 56.7725 214.996 53.7846 210.693 53.2317Z" fill="#D8C631"/>
<path d="M225.026 58.2049C225.177 58.1798 225.33 58.1267 225.478 58.1323C227.961 58.2272 229.835 56.0939 230.192 53.7706C226.766 52.3548 223.401 54.1643 222.962 57.6576C223.298 57.8028 223.63 57.9508 223.965 58.0988C223.577 58.1519 223.189 58.2021 222.809 58.2552C222.778 61.9802 225.283 64.3314 229.086 63.5579C229.014 60.6455 227.941 59.2353 225.026 58.2049Z" fill="#D8C631"/>
<path d="M219.329 55.999C221.7 56.4988 223.797 54.8653 224.727 52.5671C221.566 50.4812 217.612 51.7741 216.922 55.1054C217.517 55.4182 218.109 55.7309 218.701 56.0437C218.908 56.0241 219.131 55.9571 219.329 55.999Z" fill="#D8C631"/>
<path d="M218.699 56.0436H218.696C218.699 56.0436 218.702 56.0467 218.705 56.0467C218.708 56.0467 218.708 56.0467 218.711 56.0467C218.705 56.0467 218.702 56.0436 218.699 56.0436Z" fill="#D8C631"/>
<path d="M218.704 56.0465C218.012 55.8733 217.319 55.6974 216.618 55.5215C215.99 59.4309 218.07 61.9608 221.801 62.0334C222.477 59.2856 221.24 56.8981 218.704 56.0465Z" fill="#D8C631"/>
<path d="M250.367 57.1662C252.191 56.3089 252.668 54.9909 252.576 53.3685C250.348 53.1451 248.879 54.3822 248.709 56.5295C248.664 57.1104 248.773 57.4399 249.689 57.2639C249.233 57.5264 249.016 57.6521 248.806 57.7722C249.8 60.2323 251.752 60.9778 253.872 59.7213C253.282 58.258 252.378 57.1941 250.367 57.1662Z" fill="#D8C631"/>
<path d="M253.053 55.0774C252.548 56.3787 252.93 57.8726 253.978 58.6852C254.821 59.3386 256.01 59.3275 257.004 58.6266C256.572 57.4817 255.809 56.7277 254.673 56.6104C255.125 55.9291 255.58 55.2478 256.036 54.5636C256.005 54.2146 255.971 53.8655 255.941 53.5248C254.528 53.4243 253.472 53.9996 253.053 55.0774Z" fill="#D8C631"/>
<path d="M257.7 55.3175C258.937 54.4324 259.052 53.2958 258.739 51.9862C257.144 52.2152 256.335 53.1143 256.05 54.5468C256.047 54.5524 256.041 54.558 256.039 54.5636C256.039 54.572 256.041 54.5803 256.041 54.5859L256.053 54.5413C256.05 55.2198 256.382 55.8369 256.645 56.3898C257.404 57.9899 259.551 58.1574 260.758 56.8171C259.853 55.5661 259.359 55.3148 257.7 55.3175Z" fill="#D8C631"/>
<path d="M259.431 54.7451C261.609 55.3845 263.103 54.5384 263.287 52.6145C261.227 51.9946 259.978 52.6647 259.431 54.7451Z" fill="#D8C631"/>
<path d="M164.342 49.8556C163.521 49.6378 162.63 49.2161 162.06 48.6102C159.916 46.3344 157.319 45.9015 154.557 47.5798C155.026 48.7358 155.716 49.7411 156.699 50.5313C157.69 51.3272 158.838 51.6986 160.089 51.4975C161.242 51.3132 162.373 50.9837 163.632 50.8832C159.466 51.9834 157.458 54.3765 158.486 58.741C161.267 58.6852 163.582 56.6635 163.702 53.9492C163.764 52.5726 164.384 51.7684 165.417 51.0954C165.975 50.7324 166.542 50.3805 167.142 49.998C166.154 49.9617 165.202 50.0818 164.342 49.8556Z" fill="#9F932C"/>
<path d="M122.833 58.0569C123.279 58.029 123.545 58.015 123.807 57.9983C124.452 55.2896 122.355 53.0669 119.415 53.321C119.094 55.3092 119.87 56.7528 122.026 57.853C119.714 57.8279 118.532 59.0482 117.79 60.8493C120.428 62.5387 123.215 61.1006 123.754 58.4311C123.506 58.3306 123.251 58.2272 122.833 58.0569Z" fill="#9F932C"/>
<path d="M138.515 59.1292C138.504 59.0901 138.495 59.051 138.484 59.0119C138.741 59.0175 139.001 59.0231 139.216 59.0287C139.054 55.8426 136.87 54.1978 134.036 54.9434C134.215 57.1969 135.111 58.3306 137.451 59.0287C135.041 59.2828 134.095 60.7488 133.634 62.7035C136.449 63.7004 138.601 62.4382 139.249 59.4113C139.012 59.3191 138.763 59.2242 138.515 59.1292Z" fill="#9F932C"/>
<path d="M128.401 58.4702C128.389 58.4004 128.378 58.3306 128.367 58.2607C128.613 58.2887 128.856 58.3166 129.068 58.3417C128.797 55.15 126.879 53.6868 123.913 54.2564C123.88 56.2111 124.709 57.3392 127.038 58.4171C124.826 58.688 123.969 60.1652 123.45 62.0696C126.396 62.9911 128.437 61.7875 129.09 58.7829C128.87 58.6824 128.635 58.5763 128.401 58.4702Z" fill="#9F932C"/>
<path d="M133.313 58.9673C133.301 58.8919 133.293 58.8193 133.282 58.7439C133.522 58.7774 133.762 58.8081 133.966 58.836C133.709 55.6443 131.852 54.2146 128.836 54.7144C128.775 56.6635 129.814 58.2496 131.852 58.8556C129.708 59.1683 128.861 60.6483 128.367 62.4829C130.984 63.6557 133.466 62.1925 133.972 59.213C133.754 59.1348 133.533 59.051 133.313 58.9673Z" fill="#9F932C"/>
<path d="M156.635 52.5755C155.278 48.7806 151.6 47.4682 148.263 49.5513C149.813 53.793 153.273 54.3878 156.635 52.5755Z" fill="#9F932C"/>
<path d="M152.309 60.6762C156.331 60.2211 158.433 57.0042 157.224 53.2317C152.921 53.7846 151.29 56.7725 152.309 60.6762Z" fill="#9F932C"/>
<path d="M144.954 57.6576C144.519 54.1643 141.151 52.3548 137.725 53.7706C138.082 56.0939 139.956 58.2272 142.438 58.1323C142.589 58.1267 142.74 58.1798 142.891 58.2049C139.975 59.2353 138.903 60.6455 138.83 63.5579C142.634 64.3314 145.138 61.9802 145.108 58.2552C144.728 58.2049 144.34 58.1519 143.952 58.0988C144.284 57.9508 144.619 57.8056 144.954 57.6576Z" fill="#9F932C"/>
<path d="M149.219 56.0436C149.216 56.0467 149.213 56.0467 149.21 56.0498C149.213 56.0498 149.213 56.0498 149.216 56.0498C149.219 56.0498 149.222 56.0467 149.225 56.0467C149.222 56.0436 149.222 56.0436 149.219 56.0436Z" fill="#9F932C"/>
<path d="M143.192 52.567C144.122 54.8652 146.216 56.5015 148.59 55.9989C148.788 55.957 149.008 56.024 149.221 56.0436C149.813 55.7308 150.405 55.4209 150.999 55.1053C150.307 51.774 146.35 50.4783 143.192 52.567Z" fill="#9F932C"/>
<path d="M149.215 56.0465C146.677 56.8981 145.443 59.2856 146.118 62.0334C149.849 61.9608 151.929 59.4281 151.301 55.5215C150.597 55.6974 149.905 55.8733 149.215 56.0465Z" fill="#9F932C"/>
<path d="M119.11 57.7749C118.901 57.6548 118.683 57.5264 118.228 57.2667C119.144 57.4426 119.256 57.1131 119.208 56.5323C119.038 54.3821 117.572 53.1479 115.341 53.3713C115.248 54.9937 115.723 56.3117 117.549 57.1689C115.539 57.1969 114.634 58.2608 114.045 59.7268C116.164 60.9806 118.116 60.2322 119.11 57.7749Z" fill="#9F932C"/>
<path d="M114.864 55.0775C114.445 53.9996 113.389 53.4216 111.974 53.5277C111.943 53.8684 111.909 54.2174 111.879 54.5665C112.334 55.2506 112.789 55.932 113.241 56.6133C112.105 56.7306 111.345 57.4845 110.91 58.6294C111.904 59.3275 113.096 59.3415 113.937 58.6881C114.987 57.8755 115.369 56.3787 114.864 55.0775Z" fill="#9F932C"/>
<path d="M109.181 51.989C108.868 53.2959 108.982 54.4352 110.219 55.3204C108.561 55.3148 108.066 55.5689 107.165 56.8227C108.368 58.163 110.515 57.9955 111.278 56.3954C111.54 55.8425 111.873 55.2226 111.87 54.5469L111.881 54.5915C111.881 54.5832 111.884 54.5748 111.884 54.5692C111.881 54.5636 111.875 54.558 111.873 54.5524C111.585 53.1171 110.775 52.218 109.181 51.989Z" fill="#9F932C"/>
<path d="M104.629 52.6145C104.816 54.5384 106.307 55.3845 108.485 54.7451C107.938 52.6647 106.692 51.9946 104.629 52.6145Z" fill="#9F932C"/>
<path d="M229.457 19.8204H223.364H222.493H220.334V46.1863H223.364V22.6659H229.457V46.1863H232.484V19.8204H230.745H229.457Z" fill="white"/>
<path d="M237.81 19.8204H236.014V46.1863H237.81H239.044H247.329V43.3381H239.044V34.5252H246.424V31.6602H239.044V22.6659H247.329V19.8204H239.044H237.81Z" fill="white"/>
<path d="M249.881 22.6659H254.76V46.1863H257.806V22.6659H262.682V19.8204H249.881V22.6659Z" fill="white"/>
<path d="M267.105 19.8204H265.312V46.1863H267.105H268.339H276.627V43.3381H268.339V34.5252H275.719V31.6602H268.339V22.6659H276.627V19.8204H268.339H267.105Z" fill="white"/>
<path d="M289.475 20.5018C288.64 20.0494 287.632 19.8204 286.448 19.8204H282.368H281.243H279.338V46.1863H282.365V35.9605H286.445C287.618 35.9605 288.62 35.7371 289.455 35.2904C290.29 34.8436 290.927 34.1957 291.368 33.3496C291.809 32.5035 292.03 31.4871 292.03 30.3031V25.6035C292.03 24.3832 291.812 23.3389 291.376 22.476C290.944 21.6132 290.31 20.9541 289.475 20.5018ZM288.969 30.2277C288.969 30.8309 288.874 31.3503 288.687 31.7775C288.5 32.2075 288.224 32.537 287.864 32.766C287.501 32.995 287.065 33.1095 286.557 33.1095H282.368V22.6659H286.557C287.065 22.6659 287.501 22.7804 287.864 23.0094C288.227 23.2383 288.5 23.579 288.687 24.0258C288.874 24.4726 288.969 25.0115 288.969 25.6398V30.2277Z" fill="white"/>
<path d="M305.981 31.1073C305.146 30.6549 304.138 30.4288 302.954 30.4288H298.874V22.6659H306.98V19.8176H298.874H298.148H295.844V46.1835H297.749H298.874H302.954C304.127 46.1835 305.129 45.9629 305.964 45.5217C306.799 45.0805 307.436 44.4383 307.877 43.5894C308.318 42.7433 308.539 41.7212 308.539 40.5261V36.2118C308.539 34.9916 308.321 33.9472 307.885 33.0843C307.449 32.2215 306.816 31.5625 305.981 31.1073ZM305.509 40.4563C305.509 41.0734 305.411 41.5956 305.218 42.0256C305.026 42.4557 304.749 42.7824 304.395 43.0058C304.037 43.2291 303.607 43.3408 303.099 43.3408H298.874V33.277H303.099C303.607 33.277 304.04 33.3943 304.395 33.6317C304.752 33.8662 305.026 34.2041 305.218 34.6369C305.411 35.0725 305.509 35.6115 305.509 36.2509V40.4563Z" fill="white"/>
<path d="M316.315 38.82L312.587 19.8204H309.379L314.643 42.7991C314.542 42.8941 314.439 42.9806 314.33 43.056C313.894 43.3632 313.4 43.5196 312.844 43.5196H311.23V46.4572H312.844C313.836 46.4572 314.707 46.2478 315.455 45.8317C316.204 45.4156 316.835 44.7873 317.34 43.9468C317.845 43.1063 318.253 42.0647 318.555 40.8193L323.341 19.8232H320.314L316.315 38.82Z" fill="white"/>
<path d="M335.689 20.5018C334.854 20.0494 333.846 19.8204 332.662 19.8204H328.582H327.457H325.553V46.1863H328.58V35.9605H332.659C333.832 35.9605 334.835 35.7371 335.67 35.2904C336.505 34.8436 337.141 34.1957 337.582 33.3496C338.024 32.5035 338.244 31.4871 338.244 30.3031V25.6035C338.244 24.3832 338.026 23.3389 337.591 22.476C337.158 21.6132 336.524 20.9541 335.689 20.5018ZM335.181 30.2277C335.181 30.8309 335.086 31.3503 334.899 31.7775C334.712 32.2075 334.435 32.537 334.075 32.766C333.712 32.995 333.277 33.1095 332.768 33.1095H328.58V22.6659H332.768C333.277 22.6659 333.712 22.7804 334.075 23.0094C334.438 23.2383 334.712 23.579 334.899 24.0258C335.086 24.4726 335.181 25.0115 335.181 25.6398V30.2277Z" fill="white"/>
<path d="M351.558 22.6659V19.8204H345.085H344.359H342.058V46.1863H345.085V22.6659H351.558Z" fill="white"/>
<path d="M363.144 46.1863H366.445L360.351 19.8204H357.196L351.103 46.1863H354.404L355.599 40.1128H361.949L363.144 46.1863ZM356.157 37.2646L358.771 23.9727L361.385 37.2646H356.157Z" fill="white"/>
<path d="M9.11999 19.8204H3.02697H2.15853H0V46.1863H3.02697V22.6659H9.11999V46.1863H12.1498V19.8204H10.4073H9.11999Z" fill="white"/>
<path d="M20.0911 19.8204L13.998 46.1863H17.2987L18.4938 40.1128H24.8437L26.0389 46.1863H29.3395L23.2437 19.8204H20.0911ZM19.0523 37.2646L21.666 23.9727L24.2797 37.2646H19.0523Z" fill="white"/>
<path d="M29.5464 22.6659H34.4219V46.1863H37.4684V22.6659H42.3468V19.8204H29.5464V22.6659Z" fill="white"/>
<path d="M55.1106 20.5018C54.2756 20.0494 53.2676 19.8204 52.0836 19.8204H48.0039H46.8785H44.9741V46.1863H48.0011V35.9605H52.0808C53.2536 35.9605 54.2561 35.7371 55.091 35.2904C55.9259 34.8436 56.5626 34.1957 57.0038 33.3496C57.445 32.5035 57.6656 31.4871 57.6656 30.3031V25.6035C57.6656 24.3832 57.4478 23.3389 57.0122 22.476C56.5794 21.6132 55.9455 20.9541 55.1106 20.5018ZM54.6023 30.2277C54.6023 30.8309 54.5074 31.3503 54.3203 31.7775C54.1332 32.2075 53.8568 32.537 53.4965 32.766C53.1335 32.995 52.6979 33.1095 52.1897 33.1095H48.0011V22.6659H52.1897C52.6979 22.6659 53.1335 22.7804 53.4965 23.0094C53.8596 23.2383 54.1332 23.579 54.3203 24.0258C54.5074 24.4726 54.6023 25.0115 54.6023 25.6398V30.2277Z" fill="white"/>
<path d="M65.8592 38.82L62.1313 19.8204H58.9229L64.1865 42.7991C64.086 42.8941 63.9827 42.9806 63.8738 43.056C63.4382 43.3632 62.9439 43.5196 62.3882 43.5196H60.7742V46.4572H62.3882C63.3795 46.4572 64.2508 46.2478 64.9991 45.8317C65.7475 45.4156 66.3786 44.7873 66.884 43.9468C67.3922 43.1063 67.7971 42.0647 68.0987 40.8193L72.8849 19.8232H69.8579L65.8592 38.82Z" fill="white"/>
<path d="M83.0766 19.8204H78.2346H77.1288H75.2076V40.9813C75.2076 41.4532 75.135 41.8581 74.9898 42.196C74.8446 42.5339 74.6352 42.7963 74.3643 42.9834C74.0935 43.1705 73.7751 43.2655 73.4121 43.2655H73.2139V46.1835H73.7751C74.6938 46.1835 75.4869 45.9853 76.1515 45.586C76.8161 45.1866 77.3299 44.6086 77.6929 43.8547C78.0559 43.1007 78.2374 42.2127 78.2374 41.1991V22.6659H83.0794V46.1835H86.1064V19.8204H84.727H83.0766Z" fill="white"/>
<path d="M99.5829 31.1073C98.7479 30.655 97.7399 30.4288 96.5559 30.4288H92.5655V19.8204H89.5386V46.1863H91.443H92.5683H96.5587C97.7315 46.1863 98.734 45.9657 99.5689 45.5245C100.404 45.0833 101.04 44.4411 101.482 43.5922C101.923 42.7461 102.143 41.7241 102.143 40.5289V36.2146C102.143 34.9944 101.926 33.95 101.49 33.0871C101.052 32.2215 100.418 31.5625 99.5829 31.1073ZM99.1109 40.4563C99.1109 41.0734 99.0132 41.5956 98.8205 42.0256C98.6279 42.4557 98.3514 42.7824 97.9968 43.0058C97.6393 43.2292 97.2093 43.3409 96.7011 43.3409H92.5655V33.277H96.7011C97.2093 33.277 97.6421 33.3943 97.9968 33.6317C98.3542 33.8662 98.6279 34.2041 98.8205 34.6369C99.0132 35.0725 99.1109 35.6115 99.1109 36.2509V40.4563Z" fill="white"/>
<path d="M113.511 31.7887H107.438V19.8204H104.391V46.1863H107.438V34.6341H113.511V46.1863H116.541V19.8204H113.511V31.7887Z" fill="white"/>
<path d="M131.053 19.8204H128.007V28.8539L131.053 30.0937V19.8204Z" fill="white"/>
<path d="M128.928 31.1073C128.093 30.655 127.085 30.4288 125.901 30.4288H122.274V19.8204H119.247V46.1863H121.151H122.276H125.904C127.076 46.1863 128.079 45.9657 128.914 45.5245C129.749 45.0833 130.385 44.4411 130.827 43.5922C131.268 42.7461 131.488 41.7241 131.488 40.5289V36.2146C131.488 34.9944 131.271 33.95 130.835 33.0871C130.397 32.2215 129.763 31.5625 128.928 31.1073ZM128.456 40.4563C128.456 41.0734 128.358 41.5956 128.166 42.0256C127.973 42.4557 127.696 42.7824 127.342 43.0058C126.984 43.2292 126.554 43.3409 126.046 43.3409H122.274V33.277H126.046C126.554 33.277 126.987 33.3943 127.342 33.6317C127.699 33.8662 127.973 34.2041 128.166 34.6369C128.358 35.0725 128.456 35.6115 128.456 36.2509V40.4563Z" fill="white"/>
<path d="M144.781 19.8204L136.965 38.6971V19.8204H134.1V46.1668H136.403L144.18 27.4158V46.1668H147.045V19.8204H144.781Z" fill="white"/>
<path d="M140.5 17.9355H140.645C142.156 17.9355 143.329 17.4553 144.164 16.4947C144.998 15.5341 145.415 14.177 145.415 12.4233L142.748 12.4429C142.748 13.4342 142.563 14.1993 142.195 14.7355C141.826 15.2744 141.31 15.5425 140.645 15.5425H140.5C139.835 15.5425 139.319 15.2744 138.95 14.7355C138.582 14.1965 138.397 13.4342 138.397 12.4429L135.73 12.4233C135.73 14.177 136.147 15.5341 136.981 16.4947C137.816 17.4553 138.989 17.9355 140.5 17.9355Z" fill="white"/>
<path fill-rule="evenodd" clip-rule="evenodd" d="M199.556 20.4208C197.995 18.4075 197.227 15.5481 196.892 13.8977C196.876 13.5906 196.675 12.6356 196.675 12.6356C196.669 12.5993 196.669 12.5797 196.669 12.5797L196.622 12.6132L193.287 11.2617C193.287 11.2617 193.159 11.3232 193.061 11.3706C193.187 11.8202 193.313 12.267 193.441 12.7138C194.633 16.8689 192.201 21.0407 187.99 21.9985C187.264 22.1633 185.05 22.2219 185.05 22.2219L185.117 62.5079L188.417 59.6206V25.3689L188.496 25.4136C188.496 25.4136 188.507 25.1539 188.716 25.1009C191.841 24.3134 194.139 22.5933 195.586 19.9349C195.907 20.6637 196.27 21.3926 196.672 22.0683C198.389 24.964 201.776 26.7205 201.776 26.7205C201.776 26.7205 202 26.8713 201.958 27.0556C201.025 31.0571 199.836 34.9664 198.322 38.7529V30.3199L195.021 33.2072L194.91 52.1621C194.91 52.1621 197.359 48.4593 199.484 44.1032C201.101 40.7858 202.36 37.0915 203.22 34.3633C204.133 31.4704 204.873 28.5327 205.499 25.5672C205.585 25.1539 205.75 24.2939 205.75 24.2939C205.75 24.2939 201.782 23.2886 199.556 20.4208Z" fill="#D8C631"/>
<path d="M181.992 10.9268L176.558 10.9184L180.962 13.9677L179.272 18.9103L183.662 15.8442V5.97864L181.992 10.9268Z" fill="#5E2E34"/>
<path d="M167.563 10.3096C172.889 8.15945 178.211 6.00371 183.539 3.85635C183.575 3.84239 183.617 3.83122 183.662 3.82843V0.388184C183.516 0.393768 183.371 0.432862 183.212 0.497087C178.909 2.25072 174.6 3.99039 170.294 5.73564C168.128 6.61245 165.958 7.49206 163.788 8.36608C163.595 8.44148 163.531 8.52804 163.615 8.73468C163.699 8.9469 163.741 9.17588 163.81 9.39369C164.168 10.4799 164.321 11.5941 164.193 12.7306C163.749 16.6735 160.451 19.1894 157.179 19.2788C156.64 19.2928 156.101 19.3346 155.539 19.3654C155.539 19.4687 155.531 19.5608 155.539 19.6502C155.629 20.6387 155.704 21.6272 155.81 22.6157C156.215 26.3575 156.846 30.0603 157.74 33.7183C159.256 39.9286 161.501 45.8569 164.729 51.3915C168.033 57.0517 172.135 62.0361 177.295 66.113C179.211 67.6237 181.213 69.0059 183.455 70C183.516 70.0252 183.589 70.0419 183.662 70.0447V66.5123C183.544 66.4984 183.424 66.4481 183.287 66.3699C179.462 64.1053 176.175 61.204 173.266 57.8642C168.2 52.0505 164.715 45.3571 162.317 38.0633C160.652 33.0035 159.627 27.8096 159.035 22.5208C159.013 22.3281 159.049 22.2611 159.259 22.2136C163.791 21.1637 167.064 17.3576 167.404 12.7194C167.455 12.0353 167.388 11.3428 167.348 10.6559C167.337 10.4604 167.39 10.3794 167.563 10.3096Z" fill="#746D2E"/>
<path fill-rule="evenodd" clip-rule="evenodd" d="M167.768 20.4208C169.329 18.4075 170.097 15.5481 170.432 13.8977C170.448 13.5906 170.649 12.6356 170.649 12.6356C170.655 12.5993 170.655 12.5797 170.655 12.5797L170.702 12.6132L174.037 11.2617C174.037 11.2617 174.165 11.3232 174.263 11.3706C174.137 11.8202 174.011 12.267 173.883 12.7138C172.691 16.8689 175.123 21.0407 179.334 21.9985C180.06 22.1633 182.274 22.2219 182.274 22.2219L182.207 62.5079L178.909 59.6178V25.3689L178.831 25.4136C178.831 25.4136 178.82 25.1539 178.611 25.1009C175.486 24.3134 173.188 22.5933 171.741 19.9349C171.42 20.6637 171.057 21.3926 170.655 22.0683C168.938 24.964 165.55 26.7205 165.55 26.7205C165.55 26.7205 165.327 26.8713 165.369 27.0556C166.302 31.0571 167.491 34.9664 169.005 38.7529V30.3199L172.305 33.2072L172.411 52.1593C172.411 52.1593 169.962 48.4565 167.837 44.1004C166.221 40.783 164.961 37.0887 164.101 34.3605C163.188 31.4676 162.448 28.53 161.823 25.5644C161.736 25.1511 161.571 24.2911 161.571 24.2911C161.571 24.2911 165.542 23.2886 167.768 20.4208Z" fill="#9F932C"/>
<path d="M186.365 13.9677L188.054 18.9103L183.662 15.8442V5.97864L185.331 10.9268L190.768 10.9184L186.365 13.9677Z" fill="#8F2936"/>
<path d="M211.904 19.3319C211.868 19.7843 211.843 20.2059 211.803 20.6248C211.53 23.6462 211.144 26.648 210.578 29.6303C209.179 36.9799 206.875 44.0167 203.203 50.5649C199.643 56.9121 195.108 62.4299 189.249 66.8056C187.591 68.0454 185.859 69.1791 183.946 70.0029C183.865 70.0392 183.762 70.0531 183.662 70.0447V66.5124C183.826 66.5347 183.991 66.49 184.187 66.3755C188.47 63.8652 192.072 60.5729 195.208 56.7585C198.869 52.3046 201.648 47.3313 203.773 41.9867C206.263 35.7233 207.71 29.2086 208.455 22.5236C208.478 22.3365 208.447 22.2639 208.238 22.2136C204.496 21.2698 201.932 18.9968 200.609 15.3667C200.05 13.8308 199.922 12.2336 200.134 10.5107C200.084 10.4688 200.003 10.3571 199.894 10.3124C194.583 8.15668 189.266 6.00374 183.949 3.85917C183.865 3.82566 183.759 3.81449 183.662 3.82845V0.388212C183.838 0.37425 184.016 0.407759 184.215 0.488738C190.696 3.12477 197.18 5.74684 203.664 8.37449C203.731 8.39962 203.795 8.43592 203.89 8.4806C203.764 8.93018 203.638 9.37696 203.51 9.82375C202.318 13.9816 204.75 18.1507 208.961 19.1085C209.687 19.2732 210.452 19.2677 211.198 19.3291C211.413 19.3486 211.633 19.3319 211.904 19.3319Z" fill="#9F932C"/>
</g>
<defs>
<clipPath id="clip0_808_30">
<rect width="366.444" height="70" fill="white"/>
</clipPath>
</defs>
</svg>
