<svg width="1313" height="251" viewBox="0 0 1313 251" fill="none" xmlns="http://www.w3.org/2000/svg">
<g clip-path="url(#clip0_17_2)">
<path d="M731.58 182.21C736.09 182.57 740.14 183.75 744.27 184.41C748.74 185.13 752.86 183.8 756.41 180.95C759.93 178.12 762.4 174.52 764.08 170.38C754.19 164.37 744.89 165.92 737.21 174.07C735.17 176.24 731.98 177.75 729.04 178.53C725.96 179.35 722.55 178.92 719.02 179.04C721.18 180.41 723.2 181.67 725.2 182.97C728.9 185.37 731.12 188.26 731.34 193.19C731.77 202.91 740.06 210.15 750.02 210.35C753.69 194.72 746.5 186.15 731.58 182.21Z" fill="#D8C631"/>
<path d="M880.57 207.18C888.29 203.23 891.08 198.07 889.92 190.95C879.39 190.04 871.88 198 874.19 207.7C875.12 207.76 876.08 207.81 877.68 207.91C876.18 208.52 875.28 208.9 874.38 209.26C876.31 218.82 886.29 223.97 895.74 217.92C893.08 211.46 888.85 207.09 880.57 207.18Z" fill="#D8C631"/>
<path d="M825.32 211.39C833.7 208.89 836.91 204.83 837.55 196.76C827.41 194.08 819.58 199.98 819 211.39C819.77 211.37 820.7 211.35 821.62 211.33C821.58 211.47 821.55 211.61 821.51 211.75C820.62 212.09 819.73 212.43 818.87 212.77C821.2 223.61 828.9 228.13 838.98 224.56C837.35 217.56 833.95 212.3 825.32 211.39Z" fill="#D8C631"/>
<path d="M862.63 209.2C870.97 205.34 873.93 201.3 873.82 194.3C863.2 192.26 856.33 197.49 855.36 208.93C856.12 208.84 856.99 208.74 857.87 208.64C857.83 208.89 857.79 209.14 857.75 209.39C856.91 209.77 856.07 210.15 855.29 210.51C857.63 221.27 864.94 225.58 875.49 222.28C873.62 215.46 870.54 210.17 862.63 209.2Z" fill="#D8C631"/>
<path d="M845.38 210.78C852.68 208.61 856.4 202.92 856.18 195.95C845.38 194.16 838.73 199.27 837.81 210.71C838.54 210.61 839.4 210.49 840.26 210.38C840.22 210.65 840.19 210.91 840.15 211.18C839.36 211.48 838.56 211.78 837.79 212.07C839.6 222.74 848.49 227.98 857.86 223.78C856.1 217.2 853.06 211.9 845.38 210.78Z" fill="#D8C631"/>
<path d="M756.63 188.28C768.67 194.77 781.06 192.64 786.61 177.45C774.66 169.99 761.5 174.68 756.63 188.28Z" fill="#D8C631"/>
<path d="M754.52 190.63C750.19 204.14 757.72 215.66 772.12 217.29C775.77 203.31 769.93 192.61 754.52 190.63Z" fill="#D8C631"/>
<path d="M805.85 208.44C806.39 208.35 806.94 208.16 807.47 208.18C816.36 208.52 823.07 200.88 824.35 192.56C812.08 187.49 800.03 193.97 798.46 206.48C799.66 207 800.85 207.53 802.05 208.06C800.66 208.25 799.27 208.43 797.91 208.62C797.8 221.96 806.77 230.38 820.39 227.61C820.13 217.18 816.29 212.13 805.85 208.44Z" fill="#D8C631"/>
<path d="M785.45 200.54C793.94 202.33 801.45 196.48 804.78 188.25C793.46 180.78 779.3 185.41 776.83 197.34C778.96 198.46 781.08 199.58 783.2 200.7C783.94 200.63 784.74 200.39 785.45 200.54Z" fill="#D8C631"/>
<path d="M783.19 200.7H783.18C783.19 200.7 783.2 200.71 783.21 200.71C783.22 200.71 783.22 200.71 783.23 200.71C783.21 200.71 783.2 200.7 783.19 200.7Z" fill="#D8C631"/>
<path d="M783.21 200.71C780.73 200.09 778.25 199.46 775.74 198.83C773.49 212.83 780.94 221.89 794.3 222.15C796.72 212.31 792.29 203.76 783.21 200.71Z" fill="#D8C631"/>
<path d="M896.6 204.72C903.13 201.65 904.84 196.93 904.51 191.12C896.53 190.32 891.27 194.75 890.66 202.44C890.5 204.52 890.89 205.7 894.17 205.07C892.54 206.01 891.76 206.46 891.01 206.89C894.57 215.7 901.56 218.37 909.15 213.87C907.04 208.63 903.8 204.82 896.6 204.72Z" fill="#D8C631"/>
<path d="M906.22 197.24C904.41 201.9 905.78 207.25 909.53 210.16C912.55 212.5 916.81 212.46 920.37 209.95C918.82 205.85 916.09 203.15 912.02 202.73C913.64 200.29 915.27 197.85 916.9 195.4C916.79 194.15 916.67 192.9 916.56 191.68C911.5 191.32 907.72 193.38 906.22 197.24Z" fill="#D8C631"/>
<path d="M922.86 198.1C927.29 194.93 927.7 190.86 926.58 186.17C920.87 186.99 917.97 190.21 916.95 195.34C916.94 195.36 916.92 195.38 916.91 195.4C916.91 195.43 916.92 195.46 916.92 195.48L916.96 195.32C916.95 197.75 918.14 199.96 919.08 201.94C921.8 207.67 929.49 208.27 933.81 203.47C930.57 198.99 928.8 198.09 922.86 198.1Z" fill="#D8C631"/>
<path d="M929.06 196.05C936.86 198.34 942.21 195.31 942.87 188.42C935.49 186.2 931.02 188.6 929.06 196.05Z" fill="#D8C631"/>
<path d="M588.53 178.54C585.59 177.76 582.4 176.25 580.36 174.08C572.68 165.93 563.38 164.38 553.49 170.39C555.17 174.53 557.64 178.13 561.16 180.96C564.71 183.81 568.82 185.14 573.3 184.42C577.43 183.76 581.48 182.58 585.99 182.22C571.07 186.16 563.88 194.73 567.56 210.36C577.52 210.16 585.81 202.92 586.24 193.2C586.46 188.27 588.68 185.39 592.38 182.98C594.38 181.68 596.41 180.42 598.56 179.05C595.02 178.92 591.61 179.35 588.53 178.54Z" fill="#9F932C"/>
<path d="M439.88 207.91C441.48 207.81 442.43 207.76 443.37 207.7C445.68 198 438.17 190.04 427.64 190.95C426.49 198.07 429.27 203.24 436.99 207.18C428.71 207.09 424.48 211.46 421.82 217.91C431.27 223.96 441.25 218.81 443.18 209.25C442.29 208.89 441.38 208.52 439.88 207.91Z" fill="#9F932C"/>
<path d="M496.04 211.75C496 211.61 495.97 211.47 495.93 211.33C496.85 211.35 497.78 211.37 498.55 211.39C497.97 199.98 490.15 194.09 480 196.76C480.64 204.83 483.85 208.89 492.23 211.39C483.6 212.3 480.21 217.55 478.56 224.55C488.64 228.12 496.35 223.6 498.67 212.76C497.82 212.43 496.93 212.09 496.04 211.75Z" fill="#9F932C"/>
<path d="M459.82 209.39C459.78 209.14 459.74 208.89 459.7 208.64C460.58 208.74 461.45 208.84 462.21 208.93C461.24 197.5 454.37 192.26 443.75 194.3C443.63 201.3 446.6 205.34 454.94 209.2C447.02 210.17 443.95 215.46 442.09 222.28C452.64 225.58 459.95 221.27 462.29 210.51C461.5 210.15 460.66 209.77 459.82 209.39Z" fill="#9F932C"/>
<path d="M477.41 211.17C477.37 210.9 477.34 210.64 477.3 210.37C478.16 210.49 479.02 210.6 479.75 210.7C478.83 199.27 472.18 194.15 461.38 195.94C461.16 202.92 464.88 208.6 472.18 210.77C464.5 211.89 461.47 217.19 459.7 223.76C469.07 227.96 477.96 222.72 479.77 212.05C478.99 211.77 478.2 211.47 477.41 211.17Z" fill="#9F932C"/>
<path d="M560.93 188.28C556.07 174.69 542.9 169.99 530.95 177.45C536.5 192.64 548.89 194.77 560.93 188.28Z" fill="#9F932C"/>
<path d="M545.44 217.29C559.84 215.66 567.37 204.14 563.04 190.63C547.63 192.61 541.79 203.31 545.44 217.29Z" fill="#9F932C"/>
<path d="M519.1 206.48C517.54 193.97 505.48 187.49 493.21 192.56C494.49 200.88 501.2 208.52 510.09 208.18C510.63 208.16 511.17 208.35 511.71 208.44C501.27 212.13 497.43 217.18 497.17 227.61C510.79 230.38 519.76 221.96 519.65 208.62C518.29 208.44 516.9 208.25 515.51 208.06C516.7 207.53 517.9 207.01 519.1 206.48Z" fill="#9F932C"/>
<path d="M534.37 200.7C534.36 200.71 534.35 200.71 534.34 200.72C534.35 200.72 534.35 200.72 534.36 200.72C534.37 200.72 534.38 200.71 534.39 200.71C534.38 200.7 534.38 200.7 534.37 200.7Z" fill="#9F932C"/>
<path d="M512.79 188.25C516.12 196.48 523.62 202.34 532.12 200.54C532.83 200.39 533.62 200.63 534.38 200.7C536.5 199.58 538.62 198.47 540.75 197.34C538.27 185.41 524.1 180.77 512.79 188.25Z" fill="#9F932C"/>
<path d="M534.36 200.71C525.27 203.76 520.85 212.31 523.27 222.15C536.63 221.89 544.08 212.82 541.83 198.83C539.31 199.46 536.83 200.09 534.36 200.71Z" fill="#9F932C"/>
<path d="M426.55 206.9C425.8 206.47 425.02 206.01 423.39 205.08C426.67 205.71 427.07 204.53 426.9 202.45C426.29 194.75 421.04 190.33 413.05 191.13C412.72 196.94 414.42 201.66 420.96 204.73C413.76 204.83 410.52 208.64 408.41 213.89C416 218.38 422.99 215.7 426.55 206.9Z" fill="#9F932C"/>
<path d="M411.34 197.24C409.84 193.38 406.06 191.31 400.99 191.69C400.88 192.91 400.76 194.16 400.65 195.41C402.28 197.86 403.91 200.3 405.53 202.74C401.46 203.16 398.74 205.86 397.18 209.96C400.74 212.46 405.01 212.51 408.02 210.17C411.78 207.26 413.15 201.9 411.34 197.24Z" fill="#9F932C"/>
<path d="M390.99 186.18C389.87 190.86 390.28 194.94 394.71 198.11C388.77 198.09 387 199 383.77 203.49C388.08 208.29 395.77 207.69 398.5 201.96C399.44 199.98 400.63 197.76 400.62 195.34L400.66 195.5C400.66 195.47 400.67 195.44 400.67 195.42C400.66 195.4 400.64 195.38 400.63 195.36C399.6 190.22 396.7 187 390.99 186.18Z" fill="#9F932C"/>
<path d="M374.69 188.42C375.36 195.31 380.7 198.34 388.5 196.05C386.54 188.6 382.08 186.2 374.69 188.42Z" fill="#9F932C"/>
<path d="M821.72 70.98H799.9H796.78H789.05V165.4H799.9V81.17H821.72V165.4H832.56V70.98H826.33H821.72Z" fill="#333333"/>
<path d="M851.63 70.98H845.2V165.4H851.63H856.05H885.72V155.2H856.05V123.64H882.48V113.38H856.05V81.17H885.72V70.98H856.05H851.63Z" fill="#333333"/>
<path d="M894.86 81.17H912.33V165.4H923.24V81.17H940.7V70.98H894.86V81.17Z" fill="#333333"/>
<path d="M956.54 70.98H950.12V165.4H956.54H960.96H990.64V155.2H960.96V123.64H987.39V113.38H960.96V81.17H990.64V70.98H960.96H956.54Z" fill="#333333"/>
<path d="M1036.65 73.42C1033.66 71.8 1030.05 70.98 1025.81 70.98H1011.2H1007.17H1000.35V165.4H1011.19V128.78H1025.8C1030 128.78 1033.59 127.98 1036.58 126.38C1039.57 124.78 1041.85 122.46 1043.43 119.43C1045.01 116.4 1045.8 112.76 1045.8 108.52V91.69C1045.8 87.32 1045.02 83.58 1043.46 80.49C1041.91 77.4 1039.64 75.04 1036.65 73.42ZM1034.84 108.25C1034.84 110.41 1034.5 112.27 1033.83 113.8C1033.16 115.34 1032.17 116.52 1030.88 117.34C1029.58 118.16 1028.02 118.57 1026.2 118.57H1011.2V81.17H1026.2C1028.02 81.17 1029.58 81.58 1030.88 82.4C1032.18 83.22 1033.16 84.44 1033.83 86.04C1034.5 87.64 1034.84 89.57 1034.84 91.82V108.25Z" fill="#333333"/>
<path d="M1095.76 111.4C1092.77 109.78 1089.16 108.97 1084.92 108.97H1070.31V81.17H1099.34V70.97H1070.31H1067.71H1059.46V165.39H1066.28H1070.31H1084.92C1089.12 165.39 1092.71 164.6 1095.7 163.02C1098.69 161.44 1100.97 159.14 1102.55 156.1C1104.13 153.07 1104.92 149.41 1104.92 145.13V129.68C1104.92 125.31 1104.14 121.57 1102.58 118.48C1101.02 115.39 1098.75 113.03 1095.76 111.4ZM1094.07 144.88C1094.07 147.09 1093.72 148.96 1093.03 150.5C1092.34 152.04 1091.35 153.21 1090.08 154.01C1088.8 154.81 1087.26 155.21 1085.44 155.21H1070.31V119.17H1085.44C1087.26 119.17 1088.81 119.59 1090.08 120.44C1091.36 121.28 1092.34 122.49 1093.03 124.04C1093.72 125.6 1094.07 127.53 1094.07 129.82V144.88Z" fill="#333333"/>
<path d="M1132.77 139.02L1119.42 70.98H1107.93L1126.78 153.27C1126.42 153.61 1126.05 153.92 1125.66 154.19C1124.1 155.29 1122.33 155.85 1120.34 155.85H1114.56V166.37H1120.34C1123.89 166.37 1127.01 165.62 1129.69 164.13C1132.37 162.64 1134.63 160.39 1136.44 157.38C1138.25 154.37 1139.71 150.64 1140.79 146.18L1157.93 70.99H1147.09L1132.77 139.02Z" fill="#333333"/>
<path d="M1202.15 73.42C1199.16 71.8 1195.55 70.98 1191.31 70.98H1176.7H1172.67H1165.85V165.4H1176.69V128.78H1191.3C1195.5 128.78 1199.09 127.98 1202.08 126.38C1205.07 124.78 1207.35 122.46 1208.93 119.43C1210.51 116.4 1211.3 112.76 1211.3 108.52V91.69C1211.3 87.32 1210.52 83.58 1208.96 80.49C1207.41 77.4 1205.14 75.04 1202.15 73.42ZM1200.33 108.25C1200.33 110.41 1199.99 112.27 1199.32 113.8C1198.65 115.34 1197.66 116.52 1196.37 117.34C1195.07 118.16 1193.51 118.57 1191.69 118.57H1176.69V81.17H1191.69C1193.51 81.17 1195.07 81.58 1196.37 82.4C1197.67 83.22 1198.65 84.44 1199.32 86.04C1199.99 87.64 1200.33 89.57 1200.33 91.82V108.25Z" fill="#333333"/>
<path d="M1258.98 81.17V70.98H1235.8H1233.2H1224.96V165.4H1235.8V81.17H1258.98Z" fill="#333333"/>
<path d="M1300.47 165.4H1312.29L1290.47 70.98H1279.17L1257.35 165.4H1269.17L1273.45 143.65H1296.19L1300.47 165.4ZM1275.45 133.45L1284.81 85.85L1294.17 133.45H1275.45Z" fill="#333333"/>
<path d="M32.66 70.98H10.84H7.73H0V165.4H10.84V81.17H32.66V165.4H43.51V70.98H37.27H32.66Z" fill="#333333"/>
<path d="M71.95 70.98L50.13 165.4H61.95L66.23 143.65H88.97L93.25 165.4H105.07L83.24 70.98H71.95ZM68.23 133.45L77.59 85.85L86.95 133.45H68.23Z" fill="#333333"/>
<path d="M105.81 81.17H123.27V165.4H134.18V81.17H151.65V70.98H105.81V81.17Z" fill="#333333"/>
<path d="M197.36 73.42C194.37 71.8 190.76 70.98 186.52 70.98H171.91H167.88H161.06V165.4H171.9V128.78H186.51C190.71 128.78 194.3 127.98 197.29 126.38C200.28 124.78 202.56 122.46 204.14 119.43C205.72 116.4 206.51 112.76 206.51 108.52V91.69C206.51 87.32 205.73 83.58 204.17 80.49C202.62 77.4 200.35 75.04 197.36 73.42ZM195.54 108.25C195.54 110.41 195.2 112.27 194.53 113.8C193.86 115.34 192.87 116.52 191.58 117.34C190.28 118.16 188.72 118.57 186.9 118.57H171.9V81.17H186.9C188.72 81.17 190.28 81.58 191.58 82.4C192.88 83.22 193.86 84.44 194.53 86.04C195.2 87.64 195.54 89.57 195.54 91.82V108.25Z" fill="#333333"/>
<path d="M235.85 139.02L222.5 70.98H211.01L229.86 153.27C229.5 153.61 229.13 153.92 228.74 154.19C227.18 155.29 225.41 155.85 223.42 155.85H217.64V166.37H223.42C226.97 166.37 230.09 165.62 232.77 164.13C235.45 162.64 237.71 160.39 239.52 157.38C241.34 154.37 242.79 150.64 243.87 146.18L261.01 70.99H250.17L235.85 139.02Z" fill="#333333"/>
<path d="M297.51 70.98H280.17H276.21H269.33V146.76C269.33 148.45 269.07 149.9 268.55 151.11C268.03 152.32 267.28 153.26 266.31 153.93C265.34 154.6 264.2 154.94 262.9 154.94H262.19V165.39H264.2C267.49 165.39 270.33 164.68 272.71 163.25C275.09 161.82 276.93 159.75 278.23 157.05C279.53 154.35 280.18 151.17 280.18 147.54V81.17H297.52V165.39H308.36V70.98H303.42H297.51Z" fill="#333333"/>
<path d="M356.62 111.4C353.63 109.78 350.02 108.97 345.78 108.97H331.49V70.98H320.65V165.4H327.47H331.5H345.79C349.99 165.4 353.58 164.61 356.57 163.03C359.56 161.45 361.84 159.15 363.42 156.11C365 153.08 365.79 149.42 365.79 145.14V129.69C365.79 125.32 365.01 121.58 363.45 118.49C361.88 115.39 359.61 113.03 356.62 111.4ZM354.93 144.88C354.93 147.09 354.58 148.96 353.89 150.5C353.2 152.04 352.21 153.21 350.94 154.01C349.66 154.81 348.12 155.21 346.3 155.21H331.49V119.17H346.3C348.12 119.17 349.67 119.59 350.94 120.44C352.22 121.28 353.2 122.49 353.89 124.04C354.58 125.6 354.93 127.53 354.93 129.82V144.88Z" fill="#333333"/>
<path d="M406.5 113.84H384.75V70.98H373.84V165.4H384.75V124.03H406.5V165.4H417.35V70.98H406.5V113.84Z" fill="#333333"/>
<path d="M469.32 70.98H458.41V103.33L469.32 107.77V70.98Z" fill="#333333"/>
<path d="M461.71 111.4C458.72 109.78 455.11 108.97 450.87 108.97H437.88V70.98H427.04V165.4H433.86H437.89H450.88C455.08 165.4 458.67 164.61 461.66 163.03C464.65 161.45 466.93 159.15 468.51 156.11C470.09 153.08 470.88 149.42 470.88 145.14V129.69C470.88 125.32 470.1 121.58 468.54 118.49C466.97 115.39 464.7 113.03 461.71 111.4ZM460.02 144.88C460.02 147.09 459.67 148.96 458.98 150.5C458.29 152.04 457.3 153.21 456.03 154.01C454.75 154.81 453.21 155.21 451.39 155.21H437.88V119.17H451.39C453.21 119.17 454.76 119.59 456.03 120.44C457.31 121.28 458.29 122.49 458.98 124.04C459.67 125.6 460.02 127.53 460.02 129.82V144.88Z" fill="#333333"/>
<path d="M518.48 70.98L490.49 138.58V70.98H480.23V165.33H488.48L516.33 98.18V165.33H526.59V70.98H518.48Z" fill="#333333"/>
<path d="M503.15 64.23H503.67C509.08 64.23 513.28 62.51 516.27 59.07C519.26 55.63 520.75 50.77 520.75 44.49L511.2 44.56C511.2 48.11 510.54 50.85 509.22 52.77C507.9 54.7 506.05 55.66 503.67 55.66H503.15C500.77 55.66 498.92 54.7 497.6 52.77C496.28 50.84 495.62 48.11 495.62 44.56L486.07 44.49C486.07 50.77 487.56 55.63 490.55 59.07C493.54 62.51 497.74 64.23 503.15 64.23Z" fill="#333333"/>
<path fill-rule="evenodd" clip-rule="evenodd" d="M714.64 73.13C709.05 65.92 706.3 55.68 705.1 49.77C705.04 48.67 704.32 45.25 704.32 45.25C704.3 45.12 704.3 45.05 704.3 45.05L704.13 45.17L692.19 40.33C692.19 40.33 691.73 40.55 691.38 40.72C691.83 42.33 692.28 43.93 692.74 45.53C697.01 60.41 688.3 75.35 673.22 78.78C670.62 79.37 662.69 79.58 662.69 79.58L662.93 223.85L674.75 213.51V90.85L675.03 91.01C675.03 91.01 675.07 90.08 675.82 89.89C687.01 87.07 695.24 80.91 700.42 71.39C701.57 74 702.87 76.61 704.31 79.03C710.46 89.4 722.59 95.69 722.59 95.69C722.59 95.69 723.39 96.23 723.24 96.89C719.9 111.22 715.64 125.22 710.22 138.78V108.58L698.4 118.92L698 186.8C698 186.8 706.77 173.54 714.38 157.94C720.17 146.06 724.68 132.83 727.76 123.06C731.03 112.7 733.68 102.18 735.92 91.56C736.23 90.08 736.82 87 736.82 87C736.82 87 722.61 83.4 714.64 73.13Z" fill="#D8C631"/>
<path d="M651.74 39.13L632.28 39.1L648.05 50.02L642 67.72L657.72 56.74V21.41L651.74 39.13Z" fill="#5E2E34"/>
<path d="M600.07 36.92C619.14 29.22 638.2 21.5 657.28 13.81C657.41 13.76 657.56 13.72 657.72 13.71V1.39001C657.2 1.41001 656.68 1.55001 656.11 1.78001C640.7 8.06001 625.27 14.29 609.85 20.54C602.09 23.68 594.32 26.83 586.55 29.96C585.86 30.23 585.63 30.54 585.93 31.28C586.23 32.04 586.38 32.86 586.63 33.64C587.91 37.53 588.46 41.52 588 45.59C586.41 59.71 574.6 68.72 562.88 69.04C560.95 69.09 559.02 69.24 557.01 69.35C557.01 69.72 556.98 70.05 557.01 70.37C557.33 73.91 557.6 77.45 557.98 80.99C559.43 94.39 561.69 107.65 564.89 120.75C570.32 142.99 578.36 164.22 589.92 184.04C601.75 204.31 616.44 222.16 634.92 236.76C641.78 242.17 648.95 247.12 656.98 250.68C657.2 250.77 657.46 250.83 657.72 250.84V238.19C657.3 238.14 656.87 237.96 656.38 237.68C642.68 229.57 630.91 219.18 620.49 207.22C602.35 186.4 589.87 162.43 581.28 136.31C575.32 118.19 571.65 99.59 569.53 80.65C569.45 79.96 569.58 79.72 570.33 79.55C586.56 75.79 598.28 62.16 599.5 45.55C599.68 43.1 599.44 40.62 599.3 38.16C599.26 37.46 599.45 37.17 600.07 36.92Z" fill="#746D2E"/>
<path fill-rule="evenodd" clip-rule="evenodd" d="M600.8 73.13C606.39 65.92 609.14 55.68 610.34 49.77C610.4 48.67 611.12 45.25 611.12 45.25C611.14 45.12 611.14 45.05 611.14 45.05L611.31 45.17L623.25 40.33C623.25 40.33 623.71 40.55 624.06 40.72C623.61 42.33 623.16 43.93 622.7 45.53C618.43 60.41 627.14 75.35 642.22 78.78C644.82 79.37 652.75 79.58 652.75 79.58L652.51 223.85L640.7 213.5V90.85L640.42 91.01C640.42 91.01 640.38 90.08 639.63 89.89C628.44 87.07 620.21 80.91 615.03 71.39C613.88 74 612.58 76.61 611.14 79.03C604.99 89.4 592.86 95.69 592.86 95.69C592.86 95.69 592.06 96.23 592.21 96.89C595.55 111.22 599.81 125.22 605.23 138.78V108.58L617.05 118.92L617.43 186.79C617.43 186.79 608.66 173.53 601.05 157.93C595.26 146.05 590.75 132.82 587.67 123.05C584.4 112.69 581.75 102.17 579.51 91.55C579.2 90.07 578.61 86.99 578.61 86.99C578.61 86.99 592.83 83.4 600.8 73.13Z" fill="#9F932C"/>
<path d="M667.4 50.02L673.45 67.72L657.72 56.74V21.41L663.7 39.13L683.17 39.1L667.4 50.02Z" fill="#8F2936"/>
<path d="M758.86 69.2301C758.73 70.8501 758.64 72.3601 758.5 73.8601C757.52 84.6801 756.14 95.4301 754.11 106.11C749.1 132.43 740.85 157.63 727.7 181.08C714.95 203.81 698.71 223.57 677.73 239.24C671.79 243.68 665.59 247.74 658.74 250.69C658.45 250.82 658.08 250.87 657.72 250.84V238.19C658.31 238.27 658.9 238.11 659.6 237.7C674.94 228.71 687.84 216.92 699.07 203.26C712.18 187.31 722.13 169.5 729.74 150.36C738.66 127.93 743.84 104.6 746.51 80.6601C746.59 79.9901 746.48 79.7301 745.73 79.5501C732.33 76.1701 723.15 68.0301 718.41 55.0301C716.41 49.5301 715.95 43.8101 716.71 37.6401C716.53 37.4901 716.24 37.0901 715.85 36.9301C696.83 29.2101 677.79 21.5001 658.75 13.8201C658.45 13.7001 658.07 13.6601 657.72 13.7101V1.39006C658.35 1.34006 658.99 1.46006 659.7 1.75006C682.91 11.1901 706.13 20.5801 729.35 29.9901C729.59 30.0801 729.82 30.2101 730.16 30.3701C729.71 31.9801 729.26 33.5801 728.8 35.1801C724.53 50.0701 733.24 65.0001 748.32 68.4301C750.92 69.0201 753.66 69.0001 756.33 69.2201C757.1 69.2901 757.89 69.2301 758.86 69.2301Z" fill="#9F932C"/>
</g>
<defs>
<clipPath id="clip0_17_2">
<rect width="1312.29" height="250.68" fill="white"/>
</clipPath>
</defs>
</svg>
