<svg width="30" height="30" viewBox="0 0 30 30" fill="none" xmlns="http://www.w3.org/2000/svg">
<rect width="30" height="30" rx="4" fill="#E5E5E5"/>
<path fill-rule="evenodd" clip-rule="evenodd" d="M26.0326 8.94791C26.1965 8.40153 26.0326 8 25.2528 8H22.6739C22.018 8 21.7157 8.34679 21.552 8.72947C21.552 8.72947 20.2403 11.926 18.3825 14.0026C17.7816 14.6037 17.5084 14.7952 17.1802 14.7952C17.0165 14.7952 16.7792 14.6037 16.7792 14.0576V8.94791C16.7792 8.29231 16.5888 8 16.0424 8H11.9893C11.5797 8 11.3329 8.30436 11.3329 8.593C11.3329 9.21456 12.262 9.35809 12.3579 11.1067V14.9044C12.3579 15.7371 12.2075 15.8885 11.8796 15.8885C11.0055 15.8885 8.87869 12.6772 7.61725 9.00292C7.36999 8.28864 7.12221 8.00026 6.4632 8.00026H3.88427C3.1472 8 3 8.34679 3 8.7292C3 9.41231 3.87405 12.8003 7.07087 17.2811C9.20191 20.341 12.2044 22 14.9368 22C16.5759 22 16.7789 21.6315 16.7789 20.9968V18.6843C16.7789 17.9472 16.9343 17.8003 17.4534 17.8003C17.8358 17.8003 18.4914 17.9912 20.0216 19.4666C21.7702 21.2153 22.0583 21.9997 23.0421 21.9997H25.6211C26.3576 21.9997 26.7261 21.6312 26.5137 20.9044C26.2809 20.1796 25.4461 19.1282 24.3384 17.8822C23.7373 17.1719 22.8355 16.4068 22.5623 16.0241C22.1796 15.5325 22.2891 15.3141 22.5623 14.8766C22.5625 14.8769 25.7049 10.4506 26.0326 8.94791Z" fill="#333333"/>
</svg>
