<svg width="120" height="120" viewBox="0 0 120 120" fill="none" xmlns="http://www.w3.org/2000/svg">
<path fill-rule="evenodd" clip-rule="evenodd" d="M83.258 38.2459C80.9539 35.2741 79.8204 31.0534 79.3258 28.6174C79.3011 28.164 79.0043 26.7544 79.0043 26.7544C78.9961 26.7008 78.9961 26.672 78.9961 26.672L78.926 26.7214L74.0046 24.7265C74.0046 24.7265 73.815 24.8172 73.6708 24.8872C73.8563 25.5509 74.0417 26.2103 74.2313 26.8698C75.9913 33.003 72.4013 39.1609 66.1857 40.5747C65.114 40.8178 61.8455 40.9044 61.8455 40.9044L61.9444 100.369L66.8163 96.1071V45.5496L66.9317 45.6156C66.9317 45.6156 66.9482 45.2322 67.2573 45.1539C71.8696 43.9916 75.2618 41.4526 77.3968 37.5287C77.8708 38.6045 78.4067 39.6802 79.0002 40.6777C81.5351 44.952 86.5348 47.5445 86.5348 47.5445C86.5348 47.5445 86.8645 47.7671 86.8027 48.0392C85.426 53.9456 83.6701 59.7161 81.4362 65.3052V52.8575L76.5643 57.1194L76.3994 85.0979C76.3994 85.0979 80.0142 79.6324 83.1508 73.2025C85.5373 68.3058 87.3962 62.8527 88.6657 58.8258C90.0135 54.5557 91.1058 50.2196 92.0291 45.8423C92.1568 45.2322 92.4 43.9627 92.4 43.9627C92.4 43.9627 86.543 42.4789 83.258 38.2459Z" fill="#D8C631"/>
<path d="M57.3321 24.2319L49.3112 24.2195L55.8112 28.7205L53.3176 36.016L59.7969 31.4903V16.9282L57.3321 24.2319Z" fill="#5E2E34"/>
<path d="M36.035 23.321C43.8952 20.1472 51.7513 16.9652 59.6156 13.7956C59.6692 13.775 59.731 13.7585 59.7969 13.7544V8.67639C59.5826 8.68464 59.3683 8.74234 59.1333 8.83714C52.7817 11.4256 46.4218 13.9935 40.0661 16.5696C36.8676 17.8638 33.665 19.1621 30.4624 20.4522C30.178 20.5635 30.0832 20.6913 30.2069 20.9963C30.3305 21.3096 30.3923 21.6476 30.4954 21.9691C31.023 23.5724 31.2497 25.217 31.0601 26.8946C30.4047 32.7145 25.5369 36.4282 20.7062 36.5601C19.9107 36.5807 19.1152 36.6425 18.2867 36.6878C18.2867 36.8403 18.2744 36.9764 18.2867 37.1083C18.4186 38.5674 18.5299 40.0265 18.6865 41.4856C19.2842 47.0087 20.2157 52.4742 21.5347 57.8737C23.7728 67.0405 27.0867 75.7909 31.8514 83.9603C36.7275 92.3151 42.7823 99.6724 50.3993 105.69C53.2269 107.92 56.1822 109.96 59.4919 111.428C59.5826 111.465 59.6898 111.489 59.7969 111.494V106.28C59.6238 106.259 59.4466 106.185 59.2446 106.069C53.5978 102.727 48.7465 98.4441 44.4516 93.5145C36.9748 84.933 31.8308 75.0531 28.2903 64.2871C25.8337 56.8185 24.321 49.152 23.4472 41.3454C23.4142 41.061 23.4678 40.9621 23.7769 40.892C30.4665 39.3423 35.2972 33.7243 35.8001 26.8781C35.8743 25.8682 35.7754 24.846 35.7176 23.8321C35.7012 23.5436 35.7795 23.424 36.035 23.321Z" fill="#746D2E"/>
<path fill-rule="evenodd" clip-rule="evenodd" d="M36.3359 38.2459C38.6399 35.2741 39.7734 31.0534 40.268 28.6174C40.2928 28.164 40.5895 26.7544 40.5895 26.7544C40.5978 26.7008 40.5978 26.672 40.5978 26.672L40.6678 26.7214L45.5892 24.7265C45.5892 24.7265 45.7788 24.8172 45.9231 24.8872C45.7376 25.5509 45.5521 26.2103 45.3625 26.8698C43.6025 33.003 47.1926 39.1609 53.4082 40.5747C54.4798 40.8178 57.7484 40.9044 57.7484 40.9044L57.6495 100.369L52.7817 96.103V45.5496L52.6663 45.6156C52.6663 45.6156 52.6498 45.2322 52.3407 45.1539C47.7284 43.9916 44.3362 41.4526 42.2012 37.5287C41.7272 38.6045 41.1913 39.6802 40.5978 40.6777C38.0629 44.952 33.0632 47.5445 33.0632 47.5445C33.0632 47.5445 32.7335 47.7671 32.7953 48.0392C34.172 53.9456 35.9278 59.7161 38.1618 65.3052V52.8575L43.0337 57.1194L43.1904 85.0937C43.1904 85.0937 39.5756 79.6283 36.4389 73.1984C34.0524 68.3017 32.1935 62.8486 30.924 58.8217C29.5762 54.5515 28.4839 50.2154 27.5607 45.8381C27.4329 45.2281 27.1897 43.9586 27.1897 43.9586C27.1897 43.9586 33.0508 42.4789 36.3359 38.2459Z" fill="#9F932C"/>
<path d="M63.7868 28.7205L66.2805 36.016L59.7969 31.4903V16.9282L62.2618 24.2319L70.2868 24.2195L63.7868 28.7205Z" fill="#8F2936"/>
<path d="M101.484 36.6384C101.431 37.3061 101.394 37.9285 101.336 38.5468C100.932 43.0065 100.363 47.4374 99.5266 51.8395C97.4616 62.6879 94.0611 73.0748 88.641 82.7403C83.3858 92.109 76.692 100.254 68.0446 106.712C65.5963 108.542 63.0408 110.216 60.2174 111.432C60.0978 111.485 59.9453 111.506 59.7969 111.494V106.28C60.0401 106.313 60.2833 106.247 60.5718 106.078C66.8946 102.372 72.2117 97.5126 76.8404 91.8823C82.244 85.3081 86.3452 77.9673 89.4818 70.0782C93.1584 60.8331 95.2935 51.2171 96.394 41.3496C96.427 41.0734 96.3817 40.9663 96.0725 40.8921C90.5494 39.4989 86.7656 36.1438 84.8119 30.7855C83.9875 28.5186 83.7979 26.1609 84.1112 23.6178C84.037 23.556 83.9175 23.3911 83.7567 23.3251C75.9171 20.1431 68.0693 16.9653 60.2215 13.7998C60.0978 13.7503 59.9412 13.7338 59.7969 13.7544V8.67642C60.0566 8.65581 60.3204 8.70527 60.6131 8.8248C70.1797 12.7157 79.7504 16.5861 89.3211 20.4646C89.42 20.5017 89.5148 20.5553 89.6549 20.6213C89.4695 21.2849 89.284 21.9444 89.0944 22.6038C87.3344 28.7411 90.9245 34.8949 97.1401 36.3087C98.2117 36.5519 99.3411 36.5436 100.442 36.6343C100.759 36.6632 101.085 36.6384 101.484 36.6384Z" fill="#9F932C"/>
</svg>
