<svg width="128" height="128" viewBox="0 0 128 128" fill="none" xmlns="http://www.w3.org/2000/svg">
<path fill-rule="evenodd" clip-rule="evenodd" d="M88.8085 40.7956C86.3509 37.6257 85.1418 33.1236 84.6142 30.5253C84.5878 30.0417 84.2713 28.538 84.2713 28.538C84.2625 28.4809 84.2625 28.4501 84.2625 28.4501L84.1878 28.5029L78.9383 26.3749C78.9383 26.3749 78.7361 26.4717 78.5822 26.5464C78.78 27.2542 78.9779 27.9577 79.1801 28.6611C81.0574 35.2032 77.228 41.7716 70.598 43.2796C69.4549 43.539 65.9685 43.6314 65.9685 43.6314L66.074 107.06L71.2707 102.514V48.5863L71.3938 48.6566C71.3938 48.6566 71.4114 48.2477 71.7412 48.1642C76.6609 46.9244 80.2792 44.2161 82.5566 40.0306C83.0622 41.1781 83.6338 42.3256 84.2669 43.3895C86.9708 47.9488 92.3038 50.7142 92.3038 50.7142C92.3038 50.7142 92.6555 50.9516 92.5895 51.2418C91.1211 57.542 89.2482 63.6972 86.8652 69.6589V56.3813L81.6686 60.9273L81.4927 90.7711C81.4927 90.7711 85.3485 84.9413 88.6942 78.0826C91.2398 72.8596 93.2227 67.0429 94.5768 62.7475C96.0145 58.1927 97.1795 53.5675 98.1644 48.8984C98.3007 48.2477 98.5601 46.8936 98.5601 46.8936C98.5601 46.8936 92.3126 45.3108 88.8085 40.7956Z" fill="#D8C631"/>
<path d="M61.1543 25.8474L52.5986 25.8342L59.532 30.6352L56.8721 38.4171L63.7834 33.5897V18.0567L61.1543 25.8474Z" fill="#5E2E34"/>
<path d="M38.4374 24.8757C46.8216 21.4904 55.2014 18.0963 63.59 14.7153C63.6471 14.6933 63.7131 14.6758 63.7834 14.6714V9.25482C63.5548 9.26361 63.3262 9.32517 63.0756 9.42629C56.3005 12.1873 49.5166 14.9264 42.7372 17.6742C39.3255 19.0547 35.9093 20.4396 32.4932 21.8157C32.1899 21.9344 32.0888 22.0707 32.2207 22.3961C32.3525 22.7302 32.4185 23.0907 32.5284 23.4337C33.0912 25.1439 33.333 26.8981 33.1307 28.6875C32.4317 34.8954 27.2394 38.8567 22.0866 38.9974C21.2381 39.0194 20.3896 39.0853 19.5059 39.1337C19.5059 39.2964 19.4927 39.4415 19.5059 39.5822C19.6466 41.1385 19.7652 42.6949 19.9323 44.2513C20.5698 50.1426 21.5634 55.9725 22.9703 61.7319C25.3577 71.5098 28.8925 80.8437 33.9749 89.5576C39.176 98.4694 45.6345 106.317 53.7593 112.736C56.7753 115.115 59.9276 117.291 63.4581 118.856C63.5548 118.896 63.6691 118.922 63.7834 118.927V113.365C63.5988 113.343 63.4097 113.264 63.1943 113.141C57.171 109.575 51.9963 105.007 47.4151 99.7488C39.4398 90.5952 33.9529 80.0567 30.1763 68.5729C27.5559 60.6064 25.9424 52.4288 25.0103 44.1018C24.9752 43.7984 25.0323 43.6929 25.3621 43.6182C32.4976 41.9651 37.6504 35.9726 38.1868 28.6699C38.2659 27.5928 38.1604 26.5024 38.0988 25.4209C38.0812 25.1131 38.1648 24.9856 38.4374 24.8757Z" fill="#746D2E"/>
<path fill-rule="evenodd" clip-rule="evenodd" d="M38.7583 40.7956C41.216 37.6257 42.425 33.1236 42.9526 30.5253C42.979 30.0417 43.2955 28.538 43.2955 28.538C43.3043 28.4809 43.3043 28.4501 43.3043 28.4501L43.3791 28.5029L48.6285 26.3749C48.6285 26.3749 48.8308 26.4717 48.9847 26.5464C48.7868 27.2542 48.589 27.9577 48.3867 28.6611C46.5094 35.2032 50.3388 41.7716 56.9688 43.2796C58.1119 43.539 61.5983 43.6314 61.5983 43.6314L61.4928 107.06L56.3005 102.51V48.5863L56.1774 48.6566C56.1774 48.6566 56.1598 48.2477 55.8301 48.1642C50.9103 46.9244 47.292 44.2161 45.0146 40.0306C44.509 41.1781 43.9374 42.3256 43.3043 43.3895C40.6005 47.9488 35.2675 50.7142 35.2675 50.7142C35.2675 50.7142 34.9157 50.9516 34.9817 51.2418C36.4501 57.542 38.323 63.6972 40.706 69.6589V56.3813L45.9027 60.9273L46.0698 90.7667C46.0698 90.7667 42.214 84.9369 38.8682 78.0782C36.3226 72.8552 34.3398 67.0385 32.9856 62.7431C31.548 58.1883 30.3829 53.5631 29.3981 48.894C29.2618 48.2433 29.0024 46.8892 29.0024 46.8892C29.0024 46.8892 35.2543 45.3108 38.7583 40.7956Z" fill="#9F932C"/>
<path d="M68.0393 30.6352L70.6992 38.4171L63.7834 33.5897V18.0567L66.4125 25.8474L74.9726 25.8342L68.0393 30.6352Z" fill="#8F2936"/>
<path d="M108.25 39.081C108.193 39.7932 108.153 40.4571 108.092 41.1166C107.661 45.8736 107.054 50.5999 106.162 55.2954C103.959 66.8671 100.332 77.9464 94.5504 88.2563C88.9448 98.2496 81.8048 106.937 72.5809 113.827C69.9693 115.779 67.2435 117.564 64.2318 118.861C64.1043 118.918 63.9417 118.94 63.7834 118.927V113.365C64.0428 113.4 64.3022 113.33 64.6099 113.15C71.3542 109.197 77.0258 104.013 81.9631 98.0078C87.727 90.9953 92.1015 83.1651 95.4473 74.7501C99.369 64.8887 101.646 54.6316 102.82 44.1062C102.855 43.8117 102.807 43.6974 102.477 43.6182C96.586 42.1322 92.55 38.5534 90.466 32.8379C89.5867 30.4198 89.3845 27.905 89.7186 25.1923C89.6395 25.1264 89.5119 24.9505 89.3405 24.8802C80.9783 21.486 72.6073 18.0963 64.2362 14.7197C64.1043 14.667 63.9373 14.6494 63.7834 14.6714V9.25485C64.0604 9.23287 64.3418 9.28562 64.6539 9.41312C74.8583 13.5635 85.067 17.6918 95.2758 21.829C95.3813 21.8685 95.4824 21.9257 95.6319 21.996C95.4341 22.7039 95.2362 23.4073 95.034 24.1108C93.1567 30.6572 96.9861 37.2212 103.616 38.7293C104.759 38.9887 105.964 38.9799 107.138 39.0766C107.476 39.1074 107.824 39.081 108.25 39.081Z" fill="#9F932C"/>
</svg>
