<svg width="144" height="144" viewBox="0 0 144 144" fill="none" xmlns="http://www.w3.org/2000/svg">
<path fill-rule="evenodd" clip-rule="evenodd" d="M99.9096 45.895C97.1448 42.3289 95.7846 37.2641 95.191 34.3409C95.1614 33.7969 94.8052 32.1053 94.8052 32.1053C94.7954 32.041 94.7953 32.0064 94.7953 32.0064L94.7113 32.0657L88.8056 29.6718C88.8056 29.6718 88.5781 29.7806 88.405 29.8647C88.6276 30.661 88.8501 31.4524 89.0776 32.2438C91.1896 39.6036 86.8816 46.9931 79.4228 48.6896C78.1368 48.9814 74.2146 49.0853 74.2146 49.0853L74.3333 120.443L80.1796 115.329V54.6595L80.3181 54.7387C80.3181 54.7387 80.3379 54.2787 80.7088 54.1847C86.2435 52.7899 90.3142 49.7431 92.8763 45.0344C93.4451 46.3254 94.0881 47.6163 94.8003 48.8132C97.8422 53.9424 103.842 57.0535 103.842 57.0535C103.842 57.0535 104.237 57.3206 104.163 57.647C102.511 64.7348 100.404 71.6593 97.7234 78.3662V63.429L91.8772 68.5433L91.6793 102.117C91.6793 102.117 96.017 95.5589 99.781 87.843C102.645 81.967 104.876 75.4233 106.399 70.591C108.016 65.4668 109.327 60.2635 110.435 55.0107C110.588 54.2787 110.88 52.7553 110.88 52.7553C110.88 52.7553 103.852 50.9747 99.9096 45.895Z" fill="#D8C631"/>
<path d="M68.7986 29.0783L59.1735 29.0634L66.9734 34.4646L63.9811 43.2192L71.7563 37.7884V20.3138L68.7986 29.0783Z" fill="#5E2E34"/>
<path d="M43.242 27.9852C52.6743 24.1767 62.1016 20.3583 71.5387 16.5547C71.603 16.53 71.6772 16.5102 71.7563 16.5053V10.4117C71.4991 10.4216 71.2419 10.4908 70.96 10.6046C63.3381 13.7107 55.7062 16.7922 48.0793 19.8835C44.2411 21.4366 40.398 22.9946 36.5549 24.5427C36.2136 24.6763 36.0998 24.8296 36.2482 25.1956C36.3966 25.5715 36.4708 25.9771 36.5945 26.3629C37.2276 28.2869 37.4996 30.2604 37.2721 32.2735C36.4856 39.2574 30.6443 43.7138 24.8475 43.8721C23.8929 43.8968 22.9383 43.971 21.9441 44.0254C21.9441 44.2084 21.9293 44.3717 21.9441 44.5299C22.1024 46.2809 22.2359 48.0318 22.4239 49.7827C23.141 56.4105 24.2589 62.969 25.8416 69.4484C28.5274 80.4486 32.504 90.9491 38.2217 100.752C44.073 110.778 51.3388 119.607 60.4792 126.828C63.8722 129.504 67.4186 131.952 71.3903 133.713C71.4991 133.758 71.6277 133.787 71.7563 133.792V127.535C71.5486 127.511 71.3359 127.422 71.0936 127.283C64.3174 123.272 58.4958 118.133 53.342 112.217C44.3697 101.92 38.197 90.0638 33.9483 77.1446C31.0004 68.1822 29.1852 58.9825 28.1366 49.6145C28.0971 49.2732 28.1614 49.1545 28.5323 49.0705C36.5598 47.2107 42.3567 40.4692 42.9601 32.2537C43.0491 31.0419 42.9304 29.8153 42.8612 28.5985C42.8414 28.2523 42.9354 28.1089 43.242 27.9852Z" fill="#746D2E"/>
<path fill-rule="evenodd" clip-rule="evenodd" d="M43.6031 45.895C46.368 42.3289 47.7282 37.2641 48.3217 34.3409C48.3514 33.7969 48.7075 32.1053 48.7075 32.1053C48.7174 32.041 48.7174 32.0064 48.7174 32.0064L48.8015 32.0657L54.7071 29.6718C54.7071 29.6718 54.9346 29.7806 55.1078 29.8647C54.8852 30.661 54.6626 31.4524 54.4351 32.2438C52.3231 39.6036 56.6311 46.9931 64.0899 48.6896C65.3759 48.9814 69.2981 49.0853 69.2981 49.0853L69.1794 120.443L63.3381 115.324V54.6595L63.1996 54.7387C63.1996 54.7387 63.1798 54.2787 62.8088 54.1847C57.2741 52.7899 53.2035 49.7431 50.6414 45.0344C50.0726 46.3254 49.4296 47.6163 48.7174 48.8132C45.6755 53.9424 39.6759 57.0535 39.6759 57.0535C39.6759 57.0535 39.2802 57.3206 39.3544 57.647C41.0064 64.7348 43.1134 71.6593 45.7942 78.3662V63.429L51.6405 68.5433L51.8285 102.113C51.8285 102.113 47.4907 95.554 43.7268 87.838C40.863 81.9621 38.6323 75.4184 37.1089 70.586C35.4915 65.4619 34.1808 60.2585 33.0728 55.0058C32.9195 54.2738 32.6277 52.7504 32.6277 52.7504C32.6277 52.7504 39.6611 50.9747 43.6031 45.895Z" fill="#9F932C"/>
<path d="M76.5441 34.4646L79.5365 43.2192L71.7563 37.7884V20.3138L74.7141 29.0783L84.3441 29.0634L76.5441 34.4646Z" fill="#8F2936"/>
<path d="M121.781 43.9661C121.717 44.7674 121.672 45.5142 121.603 46.2562C121.118 51.6078 120.436 56.9249 119.432 62.2074C116.954 75.2255 112.873 87.6897 106.369 99.2883C100.063 110.531 92.0304 120.304 81.6535 128.055C78.7155 130.251 75.6489 132.259 72.2608 133.718C72.1174 133.782 71.9343 133.807 71.7563 133.792V127.536C72.0481 127.575 72.3399 127.496 72.6862 127.293C80.2735 122.847 86.654 117.015 92.2085 110.259C98.6928 102.37 103.614 93.5607 107.378 84.0939C111.79 72.9998 114.352 61.4605 115.673 49.6195C115.712 49.2881 115.658 49.1595 115.287 49.0705C108.659 47.3987 104.119 43.3726 101.774 36.9426C100.785 34.2223 100.558 31.3931 100.933 28.3413C100.844 28.2672 100.701 28.0693 100.508 27.9902C91.1005 24.1718 81.6831 20.3583 72.2658 16.5597C72.1174 16.5004 71.9294 16.4806 71.7563 16.5053V10.4117C72.0679 10.387 72.3845 10.4463 72.7356 10.5898C84.2156 15.2589 95.7004 19.9033 107.185 24.5576C107.304 24.6021 107.418 24.6664 107.586 24.7455C107.363 25.5419 107.141 26.3332 106.913 27.1246C104.801 34.4894 109.109 41.8739 116.568 43.5704C117.854 43.8622 119.209 43.8523 120.53 43.9612C120.911 43.9958 121.301 43.9661 121.781 43.9661Z" fill="#9F932C"/>
</svg>
