<svg width="152" height="152" viewBox="0 0 152 152" fill="none" xmlns="http://www.w3.org/2000/svg">
<path fill-rule="evenodd" clip-rule="evenodd" d="M105.46 48.4448C102.542 44.6805 101.106 39.3343 100.479 36.2488C100.448 35.6745 100.072 33.8889 100.072 33.8889C100.062 33.8211 100.062 33.7845 100.062 33.7845L99.973 33.8472L93.7392 31.3203C93.7392 31.3203 93.4991 31.4351 93.3163 31.5239C93.5513 32.3644 93.7862 33.1998 94.0264 34.0351C96.2557 41.8038 91.7083 49.6038 83.8352 51.3946C82.4777 51.7026 78.3376 51.8123 78.3376 51.8123L78.4629 127.134L84.634 121.736V57.6962L84.7802 57.7797C84.7802 57.7797 84.8011 57.2942 85.1926 57.195C91.0348 55.7227 95.3316 52.5066 98.036 47.5363C98.6364 48.899 99.3151 50.2616 100.067 51.5251C103.278 56.9392 109.611 60.2231 109.611 60.2231C109.611 60.2231 110.028 60.505 109.95 60.8496C108.206 68.3312 105.982 75.6404 103.152 82.7199V66.9528L96.9814 72.3512L96.7726 107.791C96.7726 107.791 101.351 100.868 105.324 92.7232C108.347 86.5207 110.702 79.6135 112.31 74.5127C114.017 69.1038 115.401 63.6115 116.57 58.0669C116.732 57.2942 117.04 55.6862 117.04 55.6862C117.04 55.6862 109.621 53.8066 105.46 48.4448Z" fill="#D8C631"/>
<path d="M72.6207 30.6938L62.4609 30.6781L70.6942 36.3794L67.5356 45.6203L75.7428 39.8878V21.4424L72.6207 30.6938Z" fill="#5E2E34"/>
<path d="M45.6444 29.5399C55.6006 25.5199 65.5516 21.4893 75.5131 17.4745C75.581 17.4484 75.6593 17.4275 75.7428 17.4222V10.9901C75.4713 11.0006 75.1998 11.0736 74.9022 11.1937C66.8568 14.4724 58.801 17.7251 50.7504 20.9881C46.699 22.6275 42.6423 24.2721 38.5857 25.9062C38.2255 26.0472 38.1054 26.209 38.262 26.5954C38.4187 26.9921 38.497 27.4203 38.6275 27.8275C39.2958 29.8584 39.5829 31.9415 39.3428 34.0664C38.5126 41.4383 32.3468 46.1424 26.2279 46.3094C25.2202 46.3355 24.2126 46.4139 23.1632 46.4713C23.1632 46.6645 23.1475 46.8367 23.1632 47.0038C23.3303 48.852 23.4712 50.7002 23.6696 52.5484C24.4267 59.5444 25.6066 66.4673 27.2773 73.3067C30.1122 84.9179 34.3098 96.0019 40.3452 106.35C46.5215 116.932 54.191 126.252 63.8392 133.874C67.4207 136.699 71.1641 139.283 75.3565 141.142C75.4713 141.189 75.6071 141.22 75.7428 141.225V134.621C75.5235 134.595 75.299 134.501 75.0432 134.355C67.8906 130.12 61.7456 124.696 56.3054 118.452C46.8347 107.582 40.3191 95.0673 35.8343 81.4304C32.7227 71.9701 30.8066 62.2593 29.6998 52.3709C29.658 52.0107 29.7259 51.8854 30.1174 51.7966C38.591 49.8335 44.7098 42.7175 45.3468 34.0456C45.4408 32.7664 45.3154 31.4717 45.2424 30.1873C45.2215 29.8219 45.3207 29.6705 45.6444 29.5399Z" fill="#746D2E"/>
<path fill-rule="evenodd" clip-rule="evenodd" d="M46.0255 48.4448C48.9439 44.6805 50.3797 39.3343 51.0062 36.2488C51.0375 35.6745 51.4134 33.8889 51.4134 33.8889C51.4239 33.8211 51.4239 33.7845 51.4239 33.7845L51.5126 33.8472L57.7464 31.3203C57.7464 31.3203 57.9865 31.4351 58.1693 31.5239C57.9343 32.3644 57.6994 33.1998 57.4592 34.0351C55.2299 41.8038 59.7773 49.6038 67.6504 51.3946C69.0078 51.7026 73.148 51.8123 73.148 51.8123L73.0227 127.134L66.8568 121.73V57.6962L66.7106 57.7797C66.7106 57.7797 66.6898 57.2942 66.2982 57.195C60.456 55.7227 56.1592 52.5066 53.4548 47.5363C52.8544 48.899 52.1757 50.2616 51.4239 51.5251C48.213 56.9392 41.8801 60.2231 41.8801 60.2231C41.8801 60.2231 41.4624 60.505 41.5407 60.8496C43.2845 68.3312 45.5086 75.6404 48.3383 82.7199V66.9528L54.5094 72.3512L54.7078 107.785C54.7078 107.785 50.1291 100.863 46.156 92.7179C43.1331 86.5155 40.7785 79.6083 39.1704 74.5075C37.4632 69.0986 36.0797 63.6062 34.9102 58.0617C34.7484 57.289 34.4403 55.6809 34.4403 55.6809C34.4403 55.6809 41.8644 53.8066 46.0255 48.4448Z" fill="#9F932C"/>
<path d="M80.7966 36.3794L83.9553 45.6203L75.7428 39.8878V21.4424L78.8649 30.6938L89.03 30.6781L80.7966 36.3794Z" fill="#8F2936"/>
<path d="M128.547 46.4087C128.479 47.2545 128.432 48.0428 128.359 48.8259C127.847 54.4749 127.127 60.0874 126.067 65.6633C123.451 79.4047 119.144 92.5613 112.279 104.804C105.622 116.671 97.1432 126.988 86.1898 135.169C83.0886 137.487 79.8516 139.607 76.2753 141.147C76.1239 141.215 75.9307 141.241 75.7428 141.225V134.621C76.0508 134.663 76.3589 134.579 76.7243 134.365C84.7332 129.671 91.4681 123.516 97.3312 116.384C104.176 108.057 109.371 98.7585 113.344 88.7658C118.001 77.0553 120.705 64.875 122.099 52.3761C122.141 52.0263 122.083 51.8906 121.692 51.7966C114.696 50.032 109.903 45.7822 107.428 38.995C106.384 36.1235 106.144 33.1372 106.541 29.9159C106.447 29.8376 106.295 29.6287 106.092 29.5452C96.1617 25.5147 86.2211 21.4893 76.2806 17.4797C76.1239 17.4171 75.9255 17.3962 75.7428 17.4223V10.9901C76.0717 10.964 76.4059 11.0267 76.7766 11.1781C88.8942 16.1066 101.017 21.009 113.14 25.9219C113.265 25.9689 113.385 26.0367 113.563 26.1203C113.328 26.9608 113.093 27.7962 112.853 28.6315C110.624 36.4054 115.171 44.2002 123.044 45.991C124.402 46.299 125.832 46.2886 127.226 46.4034C127.628 46.44 128.04 46.4087 128.547 46.4087Z" fill="#9F932C"/>
</svg>
