<svg width="16" height="16" viewBox="0 0 16 16" fill="none" xmlns="http://www.w3.org/2000/svg">
<path fill-rule="evenodd" clip-rule="evenodd" d="M11.1011 5.09946C10.7939 4.70322 10.6428 4.14046 10.5768 3.81567C10.5735 3.75521 10.5339 3.56726 10.5339 3.56726C10.5328 3.56012 10.5328 3.55627 10.5328 3.55627L10.5235 3.56287L9.86732 3.29688C9.86732 3.29688 9.84204 3.30897 9.8228 3.31831C9.84753 3.40679 9.87226 3.49472 9.89754 3.58265C10.1322 4.40041 9.65353 5.22146 8.82479 5.40996C8.6819 5.44239 8.24609 5.45393 8.24609 5.45393L8.25928 13.3825L8.90887 12.8143V6.07329L8.92426 6.08208C8.92426 6.08208 8.92646 6.03097 8.96768 6.02053C9.58264 5.86555 10.0349 5.52702 10.3196 5.00383C10.3828 5.14727 10.4543 5.29071 10.5334 5.4237C10.8714 5.9936 11.538 6.33928 11.538 6.33928C11.538 6.33928 11.582 6.36896 11.5737 6.40523C11.3902 7.19276 11.1561 7.96215 10.8582 8.70737V7.04767L10.2086 7.61593L10.1866 11.3464C10.1866 11.3464 10.6686 10.6177 11.0868 9.76034C11.405 9.10745 11.6529 8.38038 11.8221 7.84345C12.0018 7.2741 12.1475 6.69595 12.2706 6.11231C12.2876 6.03097 12.32 5.86171 12.32 5.86171C12.32 5.86171 11.5391 5.66386 11.1011 5.09946Z" fill="#D8C631"/>
<path d="M7.64428 3.23091L6.57483 3.22926L7.44149 3.82939L7.10901 4.80213L7.97292 4.1987V2.25708L7.64428 3.23091Z" fill="#5E2E34"/>
<path d="M4.80467 3.10947C5.8527 2.68631 6.90017 2.26204 7.94875 1.83942C7.95589 1.83668 7.96413 1.83448 7.97293 1.83393V1.15686C7.94435 1.15796 7.91577 1.16565 7.88445 1.17829C7.03756 1.52342 6.18958 1.8658 5.34215 2.20928C4.91568 2.38185 4.48867 2.55496 4.06165 2.72697C4.02373 2.74181 4.01109 2.75885 4.02758 2.79952C4.04407 2.84128 4.05231 2.88635 4.06605 2.92922C4.1364 3.143 4.16662 3.36227 4.14134 3.58595C4.05396 4.36194 3.40492 4.8571 2.76083 4.87468C2.65476 4.87743 2.5487 4.88568 2.43823 4.89172C2.43823 4.91205 2.43658 4.93019 2.43823 4.94778C2.45582 5.14232 2.47066 5.33687 2.49154 5.53142C2.57123 6.26784 2.69543 6.99656 2.87129 7.7165C3.16971 8.93874 3.61156 10.1055 4.24686 11.1947C4.897 12.3087 5.70431 13.2897 6.71991 14.092C7.09692 14.3893 7.49096 14.6614 7.93226 14.857C7.94435 14.862 7.95864 14.8653 7.97293 14.8658V14.1706C7.94984 14.1679 7.92621 14.158 7.89929 14.1426C7.14638 13.6969 6.49954 13.1259 5.92689 12.4686C4.92997 11.3244 4.24411 10.0071 3.77203 8.57162C3.44449 7.57581 3.2428 6.55361 3.12629 5.51273C3.1219 5.47481 3.12904 5.46162 3.17026 5.45228C4.06221 5.24564 4.7063 4.49658 4.77334 3.58375C4.78324 3.44911 4.77005 3.31281 4.76235 3.17762C4.76015 3.13915 4.7706 3.12321 4.80467 3.10947Z" fill="#746D2E"/>
<path fill-rule="evenodd" clip-rule="evenodd" d="M4.8448 5.09946C5.152 4.70322 5.30314 4.14046 5.36909 3.81567C5.37238 3.75521 5.41195 3.56726 5.41195 3.56726C5.41305 3.56012 5.41305 3.55627 5.41305 3.55627L5.42239 3.56287L6.07858 3.29688C6.07858 3.29688 6.10386 3.30897 6.12309 3.31831C6.09836 3.40679 6.07363 3.49472 6.04835 3.58265C5.81368 4.40041 6.29236 5.22146 7.1211 5.40996C7.26399 5.44239 7.6998 5.45393 7.6998 5.45393L7.68661 13.3825L7.03757 12.8137V6.07329L7.02218 6.08208C7.02218 6.08208 7.01998 6.03097 6.97877 6.02053C6.3638 5.86555 5.91151 5.52702 5.62683 5.00383C5.56363 5.14727 5.49219 5.29071 5.41305 5.4237C5.07507 5.9936 4.40844 6.33928 4.40844 6.33928C4.40844 6.33928 4.36448 6.36896 4.37272 6.40523C4.55627 7.19276 4.79039 7.96215 5.08825 8.70737V7.04767L5.73784 7.61593L5.75873 11.3458C5.75873 11.3458 5.27676 10.6171 4.85853 9.75979C4.54034 9.1069 4.29248 8.37983 4.12321 7.8429C3.9435 7.27355 3.79787 6.6954 3.67477 6.11176C3.65773 6.03042 3.62531 5.86116 3.62531 5.86116C3.62531 5.86116 4.40679 5.66386 4.8448 5.09946Z" fill="#9F932C"/>
<path d="M8.50488 3.82939L8.83737 4.80213L7.9729 4.1987V2.25708L8.30154 3.23091L9.37155 3.22926L8.50488 3.82939Z" fill="#8F2936"/>
<path d="M13.5312 4.88512C13.5241 4.97415 13.5191 5.05714 13.5114 5.13957C13.4576 5.7342 13.3817 6.32499 13.2702 6.91193C12.9948 8.35839 12.5415 9.7433 11.8188 11.032C11.1181 12.2812 10.2256 13.3671 9.07259 14.2283C8.74614 14.4723 8.40541 14.6955 8.02896 14.8576C8.01302 14.8647 7.99268 14.8675 7.9729 14.8658V14.1706C8.00532 14.175 8.03775 14.1662 8.07622 14.1437C8.91926 13.6496 9.6282 13.0017 10.2454 12.251C10.9658 11.3744 11.5127 10.3956 11.9309 9.34376C12.4211 8.11108 12.7058 6.82894 12.8525 5.51328C12.8569 5.47646 12.8509 5.46217 12.8096 5.45228C12.0732 5.26652 11.5687 4.81917 11.3082 4.10474C11.1983 3.80247 11.173 3.48812 11.2148 3.14904C11.2049 3.1408 11.189 3.11881 11.1675 3.11002C10.1223 2.68575 9.07588 2.26204 8.02951 1.83997C8.01302 1.83337 7.99214 1.83118 7.9729 1.83392V1.15686C8.00752 1.15411 8.0427 1.1607 8.08172 1.17664C9.35726 1.69543 10.6334 2.21148 11.9095 2.72862C11.9226 2.73357 11.9353 2.74071 11.954 2.7495C11.9292 2.83798 11.9045 2.92591 11.8792 3.01385C11.6446 3.83215 12.1232 4.65266 12.952 4.84116C13.0949 4.87358 13.2455 4.87248 13.3922 4.88457C13.4345 4.88842 13.4779 4.88512 13.5312 4.88512Z" fill="#9F932C"/>
</svg>
