<svg width="167" height="167" viewBox="0 0 167 167" fill="none" xmlns="http://www.w3.org/2000/svg">
<path fill-rule="evenodd" clip-rule="evenodd" d="M115.867 53.2255C112.661 49.0898 111.083 43.216 110.395 39.826C110.361 39.195 109.948 37.2332 109.948 37.2332C109.936 37.1587 109.936 37.1185 109.936 37.1185L109.839 37.1873L102.99 34.4111C102.99 34.4111 102.726 34.5373 102.525 34.6348C102.783 35.5583 103.041 36.4761 103.305 37.3938C105.755 45.9292 100.758 54.4989 92.1084 56.4664C90.617 56.8048 86.0683 56.9253 86.0683 56.9253L86.206 139.68L92.986 133.749V63.3899L93.1467 63.4817C93.1467 63.4817 93.1696 62.9482 93.5998 62.8392C100.019 61.2217 104.739 57.6882 107.711 52.2274C108.37 53.7246 109.116 55.2217 109.942 56.6098C113.47 62.5582 120.428 66.1662 120.428 66.1662C120.428 66.1662 120.886 66.4759 120.8 66.8545C118.885 75.0744 116.441 83.1049 113.332 90.8831V73.56L106.552 79.4912L106.323 118.428C106.323 118.428 111.353 110.822 115.718 101.873C119.039 95.059 121.626 87.4701 123.393 81.8659C125.269 75.9233 126.789 69.8889 128.074 63.7972C128.252 62.9482 128.59 61.1815 128.59 61.1815C128.59 61.1815 120.439 59.1165 115.867 53.2255Z" fill="#D8C631"/>
<path d="M79.7872 33.7227L68.6248 33.7055L77.6706 39.9694L74.2002 50.1223L83.2174 43.824V23.5583L79.7872 33.7227Z" fill="#5E2E34"/>
<path d="M50.1488 32.455C61.0875 28.0382 72.0206 23.61 82.9651 19.1989C83.0396 19.1702 83.1256 19.1473 83.2174 19.1415V12.0746C82.9191 12.0861 82.6209 12.1664 82.2939 12.2984C73.4546 15.9006 64.6037 19.4742 55.7587 23.0593C51.3074 24.8604 46.8505 26.6673 42.3935 28.4627C41.9977 28.6176 41.8658 28.7954 42.0379 29.2199C42.21 29.6558 42.296 30.1262 42.4394 30.5736C43.1736 32.8049 43.4891 35.0937 43.2253 37.4283C42.3132 45.5276 35.5389 50.6959 28.8161 50.8794C27.7091 50.9081 26.602 50.9942 25.4491 51.0573C25.4491 51.2695 25.4318 51.4588 25.4491 51.6423C25.6326 53.6729 25.7875 55.7035 26.0054 57.7341C26.8372 65.4205 28.1336 73.0266 29.9691 80.5409C33.0838 93.298 37.6956 105.476 44.3266 116.845C51.1124 128.472 59.5388 138.711 70.1391 147.085C74.0741 150.189 78.1869 153.028 82.793 155.07C82.9191 155.122 83.0683 155.156 83.2174 155.162V147.906C82.9765 147.877 82.7299 147.774 82.4488 147.613C74.5903 142.961 67.8389 137.001 61.8619 130.141C51.4566 118.198 44.2979 104.449 39.3706 89.4662C35.9519 79.0724 33.8467 68.4032 32.6307 57.5391C32.5848 57.1433 32.6594 57.0056 33.0896 56.9081C42.3993 54.7513 49.122 46.933 49.8218 37.4053C49.925 36 49.7874 34.5774 49.7071 33.1663C49.6841 32.7648 49.7931 32.5984 50.1488 32.455Z" fill="#746D2E"/>
<path fill-rule="evenodd" clip-rule="evenodd" d="M50.5675 53.2255C53.774 49.0898 55.3514 43.216 56.0398 39.826C56.0742 39.195 56.4872 37.2332 56.4872 37.2332C56.4986 37.1587 56.4986 37.1185 56.4986 37.1185L56.5961 37.1873L63.4451 34.4111C63.4451 34.4111 63.7089 34.5373 63.9097 34.6348C63.6516 35.5583 63.3934 36.4761 63.1296 37.3938C60.6803 45.9292 65.6764 54.4989 74.3264 56.4664C75.8178 56.8048 80.3666 56.9253 80.3666 56.9253L80.2289 139.68L73.4546 133.743V63.3899L73.294 63.4817C73.294 63.4817 73.271 62.9482 72.8408 62.8392C66.4221 61.2217 61.7013 57.6882 58.73 52.2274C58.0703 53.7246 57.3246 55.2217 56.4986 56.6098C52.9709 62.5582 46.013 66.1662 46.013 66.1662C46.013 66.1662 45.5541 66.4759 45.6402 66.8545C47.556 75.0744 49.9996 83.1049 53.1086 90.8831V73.56L59.8887 79.4912L60.1066 118.422C60.1066 118.422 55.0761 110.816 50.7109 101.868C47.3897 95.0532 44.8027 87.4644 43.036 81.8602C41.1603 75.9176 39.6402 69.8832 38.3553 63.7914C38.1775 62.9425 37.8391 61.1758 37.8391 61.1758C37.8391 61.1758 45.9958 59.1165 50.5675 53.2255Z" fill="#9F932C"/>
<path d="M88.77 39.9694L92.2403 50.1223L83.2174 43.824V23.5583L86.6476 33.7227L97.8158 33.7055L88.77 39.9694Z" fill="#8F2936"/>
<path d="M141.232 50.9885C141.158 51.9177 141.106 52.7839 141.026 53.6443C140.464 59.8508 139.672 66.0171 138.508 72.1432C135.634 87.2407 130.902 101.696 123.359 115.147C116.045 128.185 106.73 139.52 94.6954 148.508C91.2881 151.055 87.7317 153.384 83.8025 155.076C83.6362 155.151 83.4239 155.179 83.2174 155.162V147.906C83.5558 147.952 83.8943 147.86 84.2958 147.625C93.095 142.468 100.495 135.705 106.936 127.87C114.456 118.72 120.164 108.504 124.529 97.5255C129.646 84.6594 132.617 71.2771 134.148 57.5448C134.194 57.1605 134.131 57.0114 133.701 56.9081C126.015 54.9693 120.749 50.3001 118.03 42.8432C116.883 39.6883 116.619 36.4073 117.055 32.8681C116.952 32.782 116.785 32.5526 116.561 32.4608C105.651 28.0325 94.7298 23.61 83.8082 19.2047C83.6362 19.1358 83.4182 19.1129 83.2174 19.1416V12.0747C83.5788 12.046 83.9459 12.1148 84.3532 12.2812C97.6667 17.6961 110.986 23.0823 124.305 28.48C124.443 28.5316 124.575 28.6062 124.77 28.6979C124.512 29.6215 124.254 30.5392 123.99 31.457C121.54 39.9981 126.537 48.5621 135.187 50.5296C136.678 50.868 138.25 50.8565 139.781 50.9827C140.223 51.0229 140.676 50.9885 141.232 50.9885Z" fill="#9F932C"/>
</svg>
