<svg width="180" height="180" viewBox="0 0 180 180" fill="none" xmlns="http://www.w3.org/2000/svg">
<path fill-rule="evenodd" clip-rule="evenodd" d="M124.887 57.3688C121.431 52.9111 119.731 46.5801 118.989 42.9262C118.952 42.2461 118.506 40.1316 118.506 40.1316C118.494 40.0513 118.494 40.008 118.494 40.008L118.389 40.0822L111.007 37.0898C111.007 37.0898 110.723 37.2258 110.506 37.3309C110.784 38.3263 111.063 39.3155 111.347 40.3048C113.987 49.5045 108.602 58.7414 99.2785 60.862C97.671 61.2268 92.7682 61.3566 92.7682 61.3566L92.9166 150.553L100.224 144.161V68.3245L100.398 68.4234C100.398 68.4234 100.422 67.8484 100.886 67.7309C107.804 65.9874 112.893 62.1789 116.095 56.293C116.806 57.9067 117.61 59.5204 118.5 61.0166C122.303 67.428 129.802 71.3168 129.802 71.3168C129.802 71.3168 130.297 71.6507 130.204 72.0588C128.139 80.9185 125.505 89.5742 122.154 97.9578V79.2863L114.846 85.6791L114.599 127.647C114.599 127.647 120.021 119.449 124.726 109.804C128.306 102.459 131.094 94.2792 132.999 88.2387C135.02 81.8335 136.659 75.3294 138.044 68.7634C138.235 67.8484 138.6 65.9441 138.6 65.9441C138.6 65.9441 129.815 63.7184 124.887 57.3688Z" fill="#D8C631"/>
<path d="M85.9982 36.3479L73.9668 36.3294L83.7168 43.0808L79.9763 54.0241L89.6954 47.2355V25.3923L85.9982 36.3479Z" fill="#5E2E34"/>
<path d="M54.0525 34.9815C65.8428 30.2209 77.6269 25.4479 89.4234 20.6934C89.5038 20.6625 89.5965 20.6378 89.6954 20.6316V13.0146C89.3739 13.027 89.0524 13.1135 88.7 13.2557C79.1726 17.1384 69.6328 20.9902 60.0991 24.8543C55.3014 26.7957 50.4975 28.7432 45.6936 30.6784C45.267 30.8453 45.1248 31.037 45.3103 31.4945C45.4958 31.9644 45.5885 32.4713 45.7431 32.9536C46.5345 35.3586 46.8745 37.8255 46.5901 40.3418C45.6071 49.0717 38.3054 54.6423 31.0593 54.8401C29.8661 54.871 28.6728 54.9638 27.4301 55.0318C27.4301 55.2605 27.4116 55.4646 27.4301 55.6624C27.628 57.851 27.7949 60.0397 28.0298 62.2284C28.9263 70.5131 30.3236 78.7113 32.302 86.8105C35.6592 100.561 40.63 113.686 47.7772 125.94C55.0912 138.473 64.1735 149.509 75.599 158.535C79.8403 161.88 84.2732 164.94 89.2379 167.141C89.3739 167.197 89.5347 167.234 89.6954 167.24V159.419C89.4357 159.388 89.1699 159.277 88.867 159.104C80.3967 154.09 73.1198 147.666 66.6775 140.272C55.4622 127.399 47.7463 112.58 42.4354 96.4307C38.7505 85.2277 36.4815 73.7281 35.1708 62.0181C35.1213 61.5915 35.2017 61.4432 35.6654 61.3381C45.6998 59.0134 52.9458 50.5865 53.7001 40.3171C53.8114 38.8024 53.663 37.2691 53.5765 35.7481C53.5517 35.3153 53.6692 35.136 54.0525 34.9815Z" fill="#746D2E"/>
<path fill-rule="evenodd" clip-rule="evenodd" d="M54.5038 57.3688C57.9599 52.9111 59.6602 46.5801 60.4021 42.9262C60.4392 42.2461 60.8843 40.1316 60.8843 40.1316C60.8967 40.0513 60.8967 40.008 60.8967 40.008L61.0018 40.0822L68.3838 37.0898C68.3838 37.0898 68.6682 37.2258 68.8846 37.3309C68.6064 38.3263 68.3282 39.3155 68.0438 40.3048C65.4038 49.5045 70.7889 58.7414 80.1123 60.862C81.7198 61.2268 86.6226 61.3566 86.6226 61.3566L86.4742 150.553L79.1725 144.154V68.3245L78.9994 68.4234C78.9994 68.4234 78.9747 67.8484 78.511 67.7309C71.5926 65.9874 66.5043 62.1789 63.3017 56.293C62.5907 57.9067 61.787 59.5204 60.8967 61.0166C57.0944 67.428 49.5948 71.3168 49.5948 71.3168C49.5948 71.3168 49.1002 71.6507 49.193 72.0588C51.258 80.9185 53.8917 89.5742 57.2427 97.9578V79.2863L64.5506 85.6791L64.7855 127.641C64.7855 127.641 59.3634 119.442 54.6584 109.798C51.0786 102.453 48.2903 94.273 46.386 88.2325C44.3643 81.8273 42.7259 75.3232 41.341 68.7572C41.1493 67.8422 40.7845 65.938 40.7845 65.938C40.7845 65.938 49.5763 63.7184 54.5038 57.3688Z" fill="#9F932C"/>
<path d="M95.6802 43.0808L99.4207 54.0241L89.6954 47.2355V25.3923L93.3926 36.3479L105.43 36.3294L95.6802 43.0808Z" fill="#8F2936"/>
<path d="M152.227 54.9576C152.146 55.9592 152.091 56.8928 152.004 57.8202C151.398 64.5098 150.545 71.1561 149.29 77.7592C146.192 94.0319 141.092 109.612 132.961 124.11C125.079 138.164 115.038 150.38 102.067 160.069C98.3943 162.814 94.5611 165.324 90.326 167.148C90.1467 167.228 89.9179 167.259 89.6954 167.24V159.419C90.0601 159.469 90.4249 159.37 90.8577 159.116C100.342 153.558 108.317 146.269 115.261 137.823C123.366 127.962 129.518 116.951 134.223 105.117C139.738 91.2497 142.94 76.8256 144.591 62.0244C144.64 61.6102 144.572 61.4494 144.109 61.3381C135.824 59.2484 130.148 54.2157 127.218 46.1783C125.981 42.7778 125.697 39.2414 126.167 35.4267C126.055 35.3339 125.876 35.0866 125.635 34.9877C113.876 30.2147 102.104 25.4479 90.3322 20.6996C90.1467 20.6255 89.9118 20.6007 89.6954 20.6316V13.0146C90.0849 12.9837 90.4806 13.0579 90.9196 13.2372C105.269 19.0736 119.626 24.8791 133.982 30.697C134.13 30.7526 134.272 30.833 134.482 30.9319C134.204 31.9273 133.926 32.9165 133.642 33.9058C131.002 43.1117 136.387 52.3424 145.71 54.463C147.318 54.8278 149.012 54.8154 150.662 54.9515C151.138 54.9947 151.627 54.9576 152.227 54.9576Z" fill="#9F932C"/>
</svg>
