<svg width="192" height="192" viewBox="0 0 192 192" fill="none" xmlns="http://www.w3.org/2000/svg">
<path fill-rule="evenodd" clip-rule="evenodd" d="M133.213 61.1934C129.526 56.4386 127.713 49.6855 126.921 45.7879C126.882 45.0625 126.407 42.8071 126.407 42.8071C126.394 42.7214 126.394 42.6752 126.394 42.6752L126.282 42.7543L118.407 39.5624C118.407 39.5624 118.104 39.7075 117.873 39.8196C118.17 40.8814 118.467 41.9366 118.77 42.9917C121.586 52.8048 115.842 62.6575 105.897 64.9195C104.182 65.3086 98.9528 65.4471 98.9528 65.4471L99.111 160.59L106.906 153.771V72.8794L107.091 72.9849C107.091 72.9849 107.117 72.3716 107.612 72.2463C114.991 70.3866 120.419 66.3242 123.835 60.0459C124.593 61.7672 125.451 63.4884 126.4 65.0844C130.456 71.9232 138.456 76.0713 138.456 76.0713C138.456 76.0713 138.983 76.4274 138.884 76.8627C136.682 86.313 133.872 95.5458 130.298 104.488V84.572L122.503 91.3911L122.239 136.157C122.239 136.157 128.023 127.412 133.041 117.124C136.86 109.289 139.834 100.564 141.865 94.1213C144.022 87.2891 145.769 80.3513 147.247 73.3477C147.451 72.3716 147.84 70.3404 147.84 70.3404C147.84 70.3404 138.469 67.9663 133.213 61.1934Z" fill="#D8C631"/>
<path d="M91.7314 38.7711L78.8979 38.7513L89.2979 45.9528L85.3081 57.6256L95.6751 50.3845V27.0851L91.7314 38.7711Z" fill="#5E2E34"/>
<path d="M57.656 37.3136C70.2323 32.2356 82.8021 27.1444 95.385 22.073C95.4707 22.04 95.5696 22.0137 95.6751 22.0071V13.8823C95.3322 13.8955 94.9892 13.9878 94.6133 14.1395C84.4507 18.281 74.2749 22.3896 64.1057 26.5113C58.9882 28.5821 53.864 30.6595 48.7398 32.7236C48.2848 32.9017 48.1331 33.1061 48.331 33.5942C48.5288 34.0954 48.6277 34.6361 48.7926 35.1505C49.6368 37.7159 49.9995 40.3472 49.6961 43.0313C48.6475 52.3432 40.8591 58.2851 33.1299 58.4962C31.8571 58.5291 30.5843 58.628 29.2588 58.7006C29.2588 58.9446 29.239 59.1622 29.2588 59.3733C29.4698 61.7078 29.6479 64.0424 29.8985 66.3769C30.8547 75.214 32.3452 83.9587 34.4555 92.5979C38.0365 107.265 43.3387 121.266 50.9623 134.336C58.764 147.704 68.4517 159.476 80.6389 169.104C85.163 172.672 89.8915 175.937 95.1871 178.284C95.3322 178.344 95.5036 178.383 95.6751 178.39V170.047C95.3981 170.014 95.1146 169.896 94.7914 169.711C85.7565 164.363 77.9944 157.511 71.1226 149.623C59.1596 135.893 50.9294 120.085 45.2644 102.859C41.3339 90.9096 38.9136 78.6433 37.5155 66.1527C37.4627 65.6977 37.5485 65.5394 38.0431 65.4273C48.7465 62.9477 56.4756 53.9589 57.2801 43.0049C57.3988 41.3892 57.2406 39.7537 57.1482 38.1314C57.1218 37.6697 57.2472 37.4785 57.656 37.3136Z" fill="#746D2E"/>
<path fill-rule="evenodd" clip-rule="evenodd" d="M58.1374 61.1934C61.8239 56.4386 63.6375 49.6855 64.4289 45.7879C64.4685 45.0625 64.9433 42.8071 64.9433 42.8071C64.9565 42.7214 64.9565 42.6752 64.9565 42.6752L65.0686 42.7543L72.9428 39.5624C72.9428 39.5624 73.2461 39.7075 73.477 39.8196C73.1802 40.8814 72.8834 41.9366 72.5801 42.9917C69.7641 52.8048 75.5081 62.6575 85.4531 64.9195C87.1678 65.3086 92.3975 65.4471 92.3975 65.4471L92.2392 160.59L84.4507 153.765V72.8794L84.2661 72.9849C84.2661 72.9849 84.2397 72.3716 83.7451 72.2463C76.3655 70.3866 70.938 66.3242 67.5219 60.0459C66.7635 61.7672 65.9061 63.4884 64.9565 65.0844C60.9007 71.9232 52.9011 76.0713 52.9011 76.0713C52.9011 76.0713 52.3736 76.4274 52.4725 76.8627C54.6752 86.313 57.4845 95.5458 61.0589 104.488V84.572L68.854 91.3911L69.1046 136.15C69.1046 136.15 63.3209 127.405 58.3023 117.117C54.4839 109.283 51.5096 100.558 49.4784 94.1147C47.3219 87.2825 45.5743 80.3447 44.0971 73.3411C43.8926 72.365 43.5035 70.3338 43.5035 70.3338C43.5035 70.3338 52.8814 67.9663 58.1374 61.1934Z" fill="#9F932C"/>
<path d="M102.059 45.9528L106.049 57.6256L95.675 50.3845V27.0851L99.6188 38.7711L112.459 38.7513L102.059 45.9528Z" fill="#8F2936"/>
<path d="M162.375 58.6215C162.289 59.6898 162.23 60.6856 162.138 61.6749C161.491 68.8105 160.581 75.8999 159.242 82.9431C155.938 100.301 150.498 116.92 141.826 132.384C133.417 147.374 122.707 160.406 108.871 170.74C104.954 173.668 100.865 176.345 96.3477 178.291C96.1565 178.377 95.9125 178.41 95.675 178.39V170.047C96.0641 170.1 96.4532 169.995 96.9149 169.724C107.031 163.796 115.539 156.02 122.945 147.012C131.59 136.493 138.152 124.748 143.171 112.125C149.053 97.333 152.47 81.9473 154.23 66.1593C154.283 65.7175 154.211 65.546 153.716 65.4273C144.879 63.1983 138.825 57.8301 135.699 49.2568C134.38 45.6297 134.077 41.8575 134.578 37.7885C134.459 37.6895 134.268 37.4257 134.011 37.3202C121.467 32.229 108.911 27.1444 96.3543 22.0796C96.1565 22.0005 95.9059 21.9741 95.675 22.0071V13.8823C96.0905 13.8493 96.5126 13.9284 96.9808 14.1197C112.287 20.3452 127.601 26.5377 142.914 32.7434C143.072 32.8028 143.224 32.8885 143.448 32.994C143.151 34.0558 142.854 35.111 142.551 36.1661C139.735 45.9858 145.479 55.8319 155.424 58.0939C157.139 58.483 158.946 58.4698 160.707 58.6149C161.214 58.661 161.735 58.6215 162.375 58.6215Z" fill="#9F932C"/>
</svg>
