<svg width="256" height="256" viewBox="0 0 256 256" fill="none" xmlns="http://www.w3.org/2000/svg">
<path fill-rule="evenodd" clip-rule="evenodd" d="M177.617 81.5912C172.702 75.2514 170.284 66.2473 169.228 61.0505C169.176 60.0833 168.543 57.0761 168.543 57.0761C168.525 56.9618 168.525 56.9002 168.525 56.9002L168.376 57.0057L157.877 52.7499C157.877 52.7499 157.472 52.9433 157.164 53.0928C157.56 54.5085 157.956 55.9154 158.36 57.3223C162.115 70.4064 154.456 83.5432 141.196 86.5593C138.91 87.0781 131.937 87.2627 131.937 87.2627L132.148 214.12L142.541 205.028V97.1725L142.788 97.3132C142.788 97.3132 142.823 96.4954 143.482 96.3284C153.322 93.8487 160.558 88.4322 165.113 80.0612C166.124 82.3562 167.268 84.6512 168.534 86.7791C173.942 95.8975 184.608 101.428 184.608 101.428C184.608 101.428 185.311 101.903 185.179 102.484C182.242 115.084 178.496 127.394 173.73 139.318V112.763L163.337 121.855L162.985 181.542C162.985 181.542 170.697 169.882 177.388 156.165C182.48 145.719 186.445 134.086 189.154 125.495C192.029 116.385 194.359 107.135 196.329 97.7968C196.601 96.4954 197.12 93.7872 197.12 93.7872C197.12 93.7872 184.625 90.6217 177.617 81.5912Z" fill="#D8C631"/>
<path d="M122.309 51.6947L105.197 51.6684L119.064 61.2704L113.744 76.8342L127.567 67.1794V36.1134L122.309 51.6947Z" fill="#5E2E34"/>
<path d="M76.8747 49.7515C93.6431 42.9808 110.403 36.1925 127.18 29.4306C127.294 29.3867 127.426 29.3515 127.567 29.3427V18.5096C127.11 18.5272 126.652 18.6503 126.151 18.8526C112.601 24.3746 99.0333 29.8527 85.4743 35.3484C78.6509 38.1094 71.8187 40.8792 64.9865 43.6315C64.3797 43.8689 64.1775 44.1415 64.4413 44.7922C64.7051 45.4604 64.837 46.1815 65.0568 46.8673C66.1823 50.2878 66.666 53.7963 66.2615 57.3751C64.8634 69.7909 54.4787 77.7135 44.1733 77.9948C42.4762 78.0388 40.7791 78.1707 39.0117 78.2674C39.0117 78.5928 38.9853 78.8829 39.0117 79.1643C39.2931 82.2771 39.5305 85.3898 39.8646 88.5026C41.1396 100.285 43.1269 111.945 45.9407 123.464C50.7153 143.02 57.7849 161.687 67.9497 179.115C78.3519 196.939 91.269 212.634 107.519 225.472C113.551 230.229 119.855 234.582 126.916 237.712C127.11 237.791 127.338 237.844 127.567 237.853V226.73C127.197 226.686 126.819 226.528 126.389 226.281C114.342 219.15 103.993 210.014 94.8302 199.498C78.8795 181.19 67.9058 160.113 60.3525 137.146C55.1119 121.213 51.8848 104.858 50.0207 88.2036C49.9503 87.5969 50.0646 87.3858 50.7241 87.2364C64.9953 83.9302 75.3008 71.9452 76.3735 57.3399C76.5318 55.1856 76.3207 53.0049 76.1976 50.8418C76.1625 50.2263 76.3296 49.9713 76.8747 49.7515Z" fill="#746D2E"/>
<path fill-rule="evenodd" clip-rule="evenodd" d="M77.5166 81.5912C82.4319 75.2514 84.8501 66.2473 85.9052 61.0505C85.958 60.0833 86.5911 57.0761 86.5911 57.0761C86.6087 56.9618 86.6087 56.9002 86.6087 56.9002L86.7581 57.0057L97.2571 52.7499C97.2571 52.7499 97.6616 52.9433 97.9693 53.0928C97.5736 54.5085 97.178 55.9154 96.7735 57.3223C93.0188 70.4064 100.678 83.5432 113.938 86.5593C116.224 87.0781 123.197 87.2627 123.197 87.2627L122.986 214.12L112.601 205.02V97.1725L112.355 97.3132C112.355 97.3132 112.32 96.4954 111.66 96.3284C101.821 93.8487 94.584 88.4322 90.0292 80.0612C89.018 82.3562 87.8749 84.6512 86.6087 86.7791C81.2009 95.8975 70.5349 101.428 70.5349 101.428C70.5349 101.428 69.8315 101.903 69.9634 102.484C72.9003 115.084 76.6461 127.394 81.4119 139.318V112.763L91.8054 121.855L92.1395 181.533C92.1395 181.533 84.428 169.874 77.7364 156.156C72.6452 145.71 68.6796 134.077 65.9713 125.486C63.096 116.377 60.7658 107.126 58.7962 97.788C58.5236 96.4867 58.0048 93.7784 58.0048 93.7784C58.0048 93.7784 70.5085 90.6217 77.5166 81.5912Z" fill="#9F932C"/>
<path d="M136.079 61.2704L141.398 76.8342L127.567 67.1794V36.1134L132.825 51.6947L149.945 51.6684L136.079 61.2704Z" fill="#8F2936"/>
<path d="M216.5 78.162C216.386 79.5864 216.307 80.9142 216.183 82.2332C215.322 91.7473 214.108 101.2 212.323 110.591C207.918 133.734 200.664 155.893 189.101 176.513C177.89 196.499 163.61 213.874 145.162 227.653C139.939 231.557 134.487 235.127 128.464 237.721C128.209 237.836 127.883 237.879 127.567 237.853V226.73C128.086 226.8 128.604 226.659 129.22 226.299C142.708 218.394 154.052 208.027 163.926 196.016C175.454 181.991 184.203 166.33 190.895 149.5C198.738 129.777 203.293 109.263 205.641 88.2125C205.711 87.6233 205.614 87.3947 204.955 87.2364C193.172 84.2644 185.1 77.1068 180.932 65.6758C179.173 60.8396 178.769 55.8099 179.437 50.3846C179.279 50.2527 179.024 49.901 178.681 49.7603C161.957 42.972 145.215 36.1926 128.472 29.4395C128.209 29.334 127.875 29.2988 127.567 29.3428V18.5097C128.121 18.4657 128.684 18.5712 129.308 18.8262C149.717 27.1269 170.134 35.3836 190.552 43.6579C190.763 43.737 190.965 43.8514 191.264 43.992C190.868 45.4077 190.472 46.8146 190.068 48.2215C186.313 61.3144 193.972 74.4425 207.232 77.4585C209.518 77.9773 211.928 77.9597 214.275 78.1532C214.952 78.2147 215.647 78.162 216.5 78.162Z" fill="#9F932C"/>
</svg>
