<svg width="32" height="32" viewBox="0 0 32 32" fill="none" xmlns="http://www.w3.org/2000/svg">
<path fill-rule="evenodd" clip-rule="evenodd" d="M22.2021 10.1989C21.5877 9.40644 21.2855 8.28092 21.1536 7.63133C21.147 7.51043 21.0678 7.13452 21.0678 7.13452C21.0656 7.12024 21.0656 7.11254 21.0656 7.11254L21.0469 7.12573L19.7346 6.59375C19.7346 6.59375 19.684 6.61793 19.6455 6.63662C19.695 6.81358 19.7445 6.98944 19.795 7.1653C20.2644 8.80081 19.307 10.4429 17.6495 10.8199C17.3637 10.8848 16.4921 10.9079 16.4921 10.9079L16.5185 26.7651L17.8177 25.6286V12.1466L17.8485 12.1642C17.8485 12.1642 17.8529 12.0619 17.9353 12.0411C19.1652 11.7311 20.0698 11.054 20.6392 10.0077C20.7656 10.2945 20.9085 10.5814 21.0667 10.8474C21.7427 11.9872 23.0759 12.6786 23.0759 12.6786C23.0759 12.6786 23.1639 12.7379 23.1474 12.8105C22.7803 14.3855 22.312 15.9243 21.7163 17.4147V14.0953L20.4171 15.2319L20.3732 22.6928C20.3732 22.6928 21.3371 21.2353 22.1736 19.5207C22.81 18.2149 23.3057 16.7608 23.6442 15.6869C24.0036 14.5482 24.2949 13.3919 24.5411 12.2246C24.5752 12.0619 24.64 11.7234 24.64 11.7234C24.64 11.7234 23.0781 11.3277 22.2021 10.1989Z" fill="#D8C631"/>
<path d="M15.2886 6.46183L13.1497 6.45853L14.883 7.65879L14.218 9.60425L15.9458 8.3974V4.51416L15.2886 6.46183Z" fill="#5E2E34"/>
<path d="M9.60934 6.21895C11.7054 5.37261 13.8003 4.52408 15.8975 3.67885C15.9118 3.67335 15.9283 3.66895 15.9459 3.66785V2.31372C15.8887 2.31592 15.8315 2.33131 15.7689 2.35659C14.0751 3.04684 12.3792 3.7316 10.6843 4.41856C9.83136 4.76369 8.97734 5.10992 8.12331 5.45395C8.04747 5.48363 8.02219 5.5177 8.05516 5.59904C8.08814 5.68257 8.10462 5.7727 8.1321 5.85843C8.27279 6.28599 8.33324 6.72455 8.28268 7.1719C8.10792 8.72388 6.80984 9.7142 5.52166 9.74937C5.30952 9.75486 5.09739 9.77135 4.87647 9.78344C4.87647 9.82411 4.87317 9.86038 4.87647 9.89555C4.91164 10.2846 4.94131 10.6737 4.98308 11.0628C5.14245 12.5357 5.39086 13.9931 5.74258 15.433C6.33941 17.8775 7.22312 20.2109 8.49372 22.3894C9.79399 24.6174 11.4086 26.5793 13.4398 28.1841C14.1938 28.7787 14.9819 29.3228 15.8645 29.7141C15.8887 29.7239 15.9173 29.7305 15.9459 29.7316V28.3412C15.8997 28.3357 15.8524 28.316 15.7986 28.2852C14.2928 27.3938 12.9991 26.2518 11.8538 24.9372C9.85994 22.6488 8.48823 20.0142 7.54407 17.1432C6.88898 15.1516 6.4856 13.1072 6.25258 11.0255C6.24379 10.9496 6.25808 10.9232 6.34051 10.9046C8.12441 10.4913 9.4126 8.99316 9.54669 7.1675C9.56647 6.89821 9.54009 6.62563 9.52471 6.35524C9.52031 6.2783 9.54119 6.24643 9.60934 6.21895Z" fill="#746D2E"/>
<path fill-rule="evenodd" clip-rule="evenodd" d="M9.68959 10.1989C10.304 9.40644 10.6063 8.28092 10.7382 7.63133C10.7448 7.51043 10.8239 7.13452 10.8239 7.13452C10.8261 7.12024 10.8261 7.11254 10.8261 7.11254L10.8448 7.12573L12.1572 6.59375C12.1572 6.59375 12.2077 6.61793 12.2462 6.63662C12.1967 6.81358 12.1473 6.98944 12.0967 7.1653C11.6274 8.80081 12.5847 10.4429 14.2422 10.8199C14.528 10.8848 15.3996 10.9079 15.3996 10.9079L15.3732 26.7651L14.0751 25.6275V12.1466L14.0444 12.1642C14.0444 12.1642 14.04 12.0619 13.9575 12.0411C12.7276 11.7311 11.823 11.054 11.2537 10.0077C11.1273 10.2945 10.9844 10.5814 10.8261 10.8474C10.1501 11.9872 8.81688 12.6786 8.81688 12.6786C8.81688 12.6786 8.72895 12.7379 8.74544 12.8105C9.11255 14.3855 9.58078 15.9243 10.1765 17.4147V14.0953L11.4757 15.2319L11.5175 22.6917C11.5175 22.6917 10.5535 21.2342 9.71707 19.5196C9.08067 18.2138 8.58496 16.7597 8.24643 15.6858C7.88701 14.5471 7.59574 13.3908 7.34954 12.2235C7.31546 12.0608 7.25061 11.7223 7.25061 11.7223C7.25061 11.7223 8.81358 11.3277 9.68959 10.1989Z" fill="#9F932C"/>
<path d="M17.0098 7.65879L17.6748 9.60425L15.9459 8.3974V4.51416L16.6031 6.46183L18.7432 6.45853L17.0098 7.65879Z" fill="#8F2936"/>
<path d="M27.0625 9.77025C27.0482 9.94831 27.0383 10.1143 27.0229 10.2791C26.9152 11.4684 26.7636 12.65 26.5404 13.8239C25.9898 16.7168 25.083 19.4866 23.6376 22.0641C22.2362 24.5624 20.4512 26.7343 18.1452 28.4566C17.4923 28.9447 16.8109 29.3909 16.058 29.7152C16.0261 29.7294 15.9854 29.7349 15.9459 29.7316V28.3412C16.0107 28.35 16.0756 28.3324 16.1525 28.2874C17.8386 27.2993 19.2565 26.0034 20.4908 24.502C21.9318 22.7488 23.0254 20.7913 23.8618 18.6875C24.8423 16.2222 25.4116 13.6579 25.7051 11.0266C25.7139 10.9529 25.7018 10.9243 25.6194 10.9046C24.1465 10.533 23.1375 9.63835 22.6165 8.20947C22.3967 7.60495 22.3461 6.97624 22.4297 6.29808C22.4099 6.28159 22.378 6.23762 22.3351 6.22004C20.2446 5.37151 18.1518 4.52407 16.0591 3.67994C16.0261 3.66675 15.9843 3.66235 15.9459 3.66785V2.31371C16.0151 2.30822 16.0855 2.32141 16.1635 2.35328C18.7146 3.39086 21.2668 4.42295 23.819 5.45724C23.8453 5.46713 23.8706 5.48142 23.908 5.49901C23.8585 5.67597 23.8091 5.85183 23.7585 6.02769C23.2892 7.6643 24.2465 9.30531 25.904 9.68232C26.1898 9.74716 26.491 9.74497 26.7844 9.76915C26.8691 9.77684 26.9559 9.77025 27.0625 9.77025Z" fill="#9F932C"/>
</svg>
