<svg width="512" height="512" viewBox="0 0 512 512" fill="none" xmlns="http://www.w3.org/2000/svg">
<path fill-rule="evenodd" clip-rule="evenodd" d="M355.234 163.182C345.403 150.503 340.567 132.495 338.457 122.101C338.351 120.167 337.085 114.152 337.085 114.152C337.05 113.924 337.05 113.8 337.05 113.8L336.751 114.011L315.753 105.5C315.753 105.5 314.944 105.887 314.329 106.186C315.12 109.017 315.911 111.831 316.72 114.645C324.23 140.813 308.912 167.086 282.392 173.119C277.82 174.156 263.874 174.525 263.874 174.525L264.296 428.241L285.083 410.057V194.345L285.575 194.626C285.575 194.626 285.646 192.991 286.965 192.657C306.644 187.697 321.117 176.864 330.227 160.122C332.249 164.712 334.535 169.302 337.068 173.558C347.883 191.795 369.215 202.857 369.215 202.857C369.215 202.857 370.622 203.806 370.358 204.967C364.484 230.168 356.993 254.789 347.461 278.635V225.525L326.674 243.709L325.971 363.084C325.971 363.084 341.394 339.765 354.777 312.331C364.959 291.438 372.891 268.172 378.307 250.99C384.058 232.771 388.718 214.27 392.657 195.594C393.203 192.991 394.24 187.574 394.24 187.574C394.24 187.574 369.25 181.243 355.234 163.182Z" fill="#D8C631"/>
<path d="M244.617 103.39L210.394 103.337L238.128 122.541L227.488 153.668L255.134 134.359V72.2269L244.617 103.39Z" fill="#5E2E34"/>
<path d="M153.749 99.503C187.286 85.9616 220.806 72.3851 254.36 58.8614C254.589 58.7734 254.852 58.7031 255.134 58.6855V37.0193C254.219 37.0545 253.305 37.3007 252.302 37.7052C225.202 48.7493 198.067 59.7055 170.949 70.6968C157.302 76.2189 143.637 81.7585 129.973 87.263C128.759 87.7378 128.355 88.283 128.883 89.5844C129.41 90.9209 129.674 92.363 130.114 93.7347C132.365 100.576 133.332 107.593 132.523 114.75C129.727 139.582 108.957 155.427 88.3465 155.99C84.9524 156.078 81.5583 156.341 78.0234 156.535C78.0234 157.186 77.9707 157.766 78.0234 158.329C78.5862 164.554 79.061 170.78 79.7293 177.005C82.2792 200.571 86.2538 223.89 91.8814 246.928C101.431 286.039 115.57 323.375 135.899 358.231C156.704 393.878 182.538 425.269 215.037 450.945C227.101 460.459 239.711 469.164 253.832 475.425C254.219 475.583 254.676 475.689 255.134 475.706V453.46C254.395 453.372 253.639 453.055 252.777 452.563C228.684 438.3 207.985 420.028 189.66 398.995C157.759 362.381 135.812 320.227 120.705 274.292C110.224 242.426 103.77 209.715 100.041 176.407C99.9007 175.194 100.129 174.772 101.448 174.473C129.991 167.86 150.602 143.89 152.747 114.68C153.064 110.371 152.641 106.01 152.395 101.684C152.325 100.453 152.659 99.9426 153.749 99.503Z" fill="#746D2E"/>
<path fill-rule="evenodd" clip-rule="evenodd" d="M155.033 163.182C164.864 150.503 169.7 132.495 171.81 122.101C171.916 120.167 173.182 114.152 173.182 114.152C173.217 113.924 173.217 113.8 173.217 113.8L173.516 114.011L194.514 105.5C194.514 105.5 195.323 105.887 195.939 106.186C195.147 109.017 194.356 111.831 193.547 114.645C186.038 140.813 201.355 167.086 227.875 173.119C232.447 174.156 246.393 174.525 246.393 174.525L245.971 428.241L225.202 410.039V194.345L224.71 194.626C224.71 194.626 224.639 192.991 223.32 192.657C203.641 187.697 189.168 176.864 180.058 160.122C178.036 164.712 175.75 169.302 173.217 173.558C162.402 191.795 141.07 202.857 141.07 202.857C141.07 202.857 139.663 203.806 139.927 204.967C145.8 230.168 153.292 254.789 162.824 278.635V225.525L183.611 243.709L184.279 363.067C184.279 363.067 168.856 339.747 155.473 312.313C145.29 291.421 137.359 268.154 131.943 250.972C126.192 232.753 121.532 214.253 117.592 195.576C117.047 192.973 116.009 187.557 116.009 187.557C116.009 187.557 141.017 181.243 155.033 163.182Z" fill="#9F932C"/>
<path d="M272.157 122.541L282.797 153.668L255.134 134.359V72.2269L265.65 103.39L299.89 103.337L272.157 122.541Z" fill="#8F2936"/>
<path d="M433 156.324C432.771 159.173 432.613 161.828 432.367 164.466C430.643 183.495 428.217 202.4 424.647 221.182C415.836 267.468 401.327 311.786 378.202 353.025C355.779 392.998 327.219 427.749 290.323 455.306C279.877 463.115 268.974 470.254 256.927 475.442C256.417 475.671 255.767 475.759 255.134 475.706V453.46C256.171 453.6 257.209 453.319 258.44 452.598C285.417 436.788 308.103 416.054 327.852 392.031C350.908 363.981 368.406 332.66 381.789 299C397.476 259.555 406.586 218.526 411.281 176.425C411.422 175.247 411.228 174.789 409.909 174.473C386.344 168.529 370.2 154.214 361.864 131.352C358.347 121.679 357.538 111.62 358.874 100.769C358.558 100.505 358.048 99.802 357.362 99.5206C323.913 85.9441 290.429 72.3852 256.945 58.879C256.417 58.668 255.749 58.5976 255.134 58.6855V37.0194C256.241 36.9315 257.367 37.1425 258.616 37.6525C299.433 54.2538 340.268 70.7672 381.103 87.3158C381.525 87.4741 381.93 87.7027 382.528 87.9841C381.736 90.8155 380.945 93.6292 380.136 96.443C372.627 122.629 387.944 148.885 414.464 154.917C419.037 155.955 423.855 155.919 428.551 156.306C429.905 156.429 431.294 156.324 433 156.324Z" fill="#9F932C"/>
</svg>
