<svg width="64" height="64" viewBox="0 0 64 64" fill="none" xmlns="http://www.w3.org/2000/svg">
<path fill-rule="evenodd" clip-rule="evenodd" d="M44.4043 20.3978C43.1754 18.8129 42.5709 16.5618 42.3071 15.2627C42.2939 15.0209 42.1357 14.269 42.1357 14.269C42.1313 14.2405 42.1313 14.2251 42.1313 14.2251L42.0939 14.2515L39.4691 13.1875C39.4691 13.1875 39.368 13.2359 39.2911 13.2732C39.39 13.6272 39.4889 13.9789 39.5901 14.3306C40.5287 17.6016 38.614 20.8858 35.299 21.6398C34.7275 21.7695 32.9843 21.8157 32.9843 21.8157L33.037 53.5302L35.6354 51.2571V24.2932L35.6969 24.3283C35.6969 24.3283 35.7057 24.1239 35.8706 24.0821C38.3304 23.4622 40.1396 22.1081 41.2783 20.0153C41.5311 20.5891 41.8169 21.1628 42.1335 21.6948C43.4854 23.9744 46.1519 25.3571 46.1519 25.3571C46.1519 25.3571 46.3277 25.4758 46.2948 25.6209C45.5606 28.771 44.6241 31.8486 43.4326 34.8295V28.1907L40.8343 30.4637L40.7463 45.3856C40.7463 45.3856 42.6742 42.4707 44.3471 39.0414C45.6199 36.4298 46.6113 33.5215 47.2884 31.3738C48.0072 29.0964 48.5898 26.7838 49.0822 24.4492C49.1503 24.1239 49.28 23.4468 49.28 23.4468C49.28 23.4468 46.1563 22.6554 44.4043 20.3978Z" fill="#D8C631"/>
<path d="M30.5771 12.9237L26.2993 12.9171L29.766 15.3176L28.436 19.2086L31.8917 16.7949V9.02838L30.5771 12.9237Z" fill="#5E2E34"/>
<path d="M19.2187 12.4379C23.4108 10.7452 27.6007 9.04816 31.795 7.35769C31.8236 7.3467 31.8565 7.33791 31.8917 7.33571V4.62744C31.7774 4.63184 31.6631 4.66261 31.5378 4.71317C28.1503 6.09369 24.7583 7.46321 21.3686 8.83713C19.6627 9.52739 17.9547 10.2198 16.2466 10.9079C16.0949 10.9673 16.0444 11.0354 16.1103 11.1981C16.1763 11.3651 16.2092 11.5454 16.2642 11.7169C16.5456 12.572 16.6665 13.4491 16.5654 14.3438C16.2158 17.4478 13.6197 19.4284 11.0433 19.4987C10.619 19.5097 10.1948 19.5427 9.75293 19.5669C9.75293 19.6482 9.74634 19.7208 9.75293 19.7911C9.82328 20.5693 9.88262 21.3475 9.96616 22.1257C10.2849 25.0714 10.7817 27.9863 11.4852 30.866C12.6788 35.7549 14.4462 40.4219 16.9874 44.7788C19.588 49.2347 22.8172 53.1586 26.8796 56.3681C28.3877 57.5574 29.9638 58.6455 31.729 59.4281C31.7774 59.4479 31.8345 59.4611 31.8917 59.4633V56.6825C31.7994 56.6715 31.7049 56.6319 31.5971 56.5704C28.5855 54.7876 25.9981 52.5036 23.7075 49.8744C19.7199 45.2976 16.9765 40.0284 15.0881 34.2865C13.778 30.3032 12.9712 26.2145 12.5052 22.0509C12.4876 21.8992 12.5162 21.8465 12.681 21.8091C16.2488 20.9826 18.8252 17.9863 19.0934 14.335C19.1329 13.7964 19.0802 13.2513 19.0494 12.7105C19.0406 12.5566 19.0824 12.4929 19.2187 12.4379Z" fill="#746D2E"/>
<path fill-rule="evenodd" clip-rule="evenodd" d="M19.3791 20.3978C20.608 18.8129 21.2125 16.5618 21.4763 15.2627C21.4895 15.0209 21.6477 14.269 21.6477 14.269C21.6521 14.2405 21.6521 14.2251 21.6521 14.2251L21.6895 14.2515L24.3142 13.1875C24.3142 13.1875 24.4154 13.2359 24.4923 13.2732C24.3934 13.6272 24.2945 13.9789 24.1933 14.3306C23.2547 17.6016 25.1694 20.8858 28.4844 21.6398C29.0559 21.7695 30.7991 21.8157 30.7991 21.8157L30.7464 53.5302L28.1502 51.2549V24.2932L28.0887 24.3283C28.0887 24.3283 28.0799 24.1239 27.915 24.0821C25.4551 23.4622 23.646 22.1081 22.5073 20.0153C22.2545 20.5891 21.9687 21.1628 21.6521 21.6948C20.3002 23.9744 17.6337 25.3571 17.6337 25.3571C17.6337 25.3571 17.4578 25.4758 17.4908 25.6209C18.225 28.771 19.1615 31.8486 20.353 34.8295V28.1907L22.9513 30.4637L23.0348 45.3834C23.0348 45.3834 21.107 42.4685 19.4341 39.0392C18.1613 36.4276 17.1699 33.5193 16.4928 31.3716C15.774 29.0942 15.1914 26.7816 14.699 24.447C14.6309 24.1217 14.5012 23.4446 14.5012 23.4446C14.5012 23.4446 17.6271 22.6554 19.3791 20.3978Z" fill="#9F932C"/>
<path d="M34.0196 15.3176L35.3496 19.2086L31.8917 16.7949V9.02838L33.2062 12.9237L37.4863 12.9171L34.0196 15.3176Z" fill="#8F2936"/>
<path d="M54.125 19.5405C54.0964 19.8966 54.0766 20.2286 54.0458 20.5583C53.8304 22.9368 53.527 25.3 53.0808 27.6477C51.9795 33.4336 50.1659 38.9732 47.2752 44.1281C44.4724 49.1248 40.9024 53.4686 36.2904 56.9133C34.9846 57.8893 33.6217 58.7818 32.1159 59.4303C32.0521 59.4589 31.9708 59.4699 31.8917 59.4633V56.6825C32.0214 56.7001 32.1511 56.6649 32.3049 56.5748C35.6771 54.5985 38.5129 52.0067 40.9815 49.0039C43.8635 45.4977 46.0507 41.5825 47.7236 37.3751C49.6845 32.4443 50.8232 27.3158 51.4101 22.0531C51.4277 21.9058 51.4035 21.8487 51.2386 21.8091C48.293 21.0661 46.2749 19.2767 45.233 16.4189C44.7933 15.2099 44.6922 13.9525 44.8593 12.5962C44.8197 12.5632 44.7559 12.4752 44.6702 12.4401C40.4891 10.743 36.3036 9.04815 32.1181 7.35987C32.0521 7.3335 31.9686 7.3247 31.8917 7.33569V4.62742C32.0302 4.61643 32.1709 4.64281 32.3269 4.70656C37.4291 6.78173 42.5335 8.84591 47.6379 10.9145C47.6906 10.9343 47.7412 10.9628 47.8159 10.998C47.717 11.3519 47.6181 11.7037 47.517 12.0554C46.5783 15.3286 48.493 18.6106 51.808 19.3646C52.3796 19.4943 52.9819 19.4899 53.5688 19.5383C53.7381 19.5537 53.9117 19.5405 54.125 19.5405Z" fill="#9F932C"/>
</svg>
